%FSDAX66Y66*%
%MOMM*%
%SFA1B1*%

%IPPOS*%
%ADD16C,0.100000*%
%LNpcb1-1*%
%LPD*%
G54D16*
X-000078398192Y-000076899795D02*
D01*
D01*
G75*
G03X-000074372978Y-000077978381I4025449J6972402D01*
G74*G01*
D01*
D01*
G75*
G03X-000070347789Y-000076899795I85J8049753D01*
G74*G01*
D01*
D01*
G75*
G03X-000067401186Y-000073953192I-4025199J6971799D01*
G74*G01*
D01*
D01*
G75*
G03X-000066357398Y-000070675576I-6972442J4025483D01*
G74*G01*
X-000060637775D02*
D01*
D01*
G75*
G03X-000059593988Y-000073953192I8014912J747460D01*
G74*G01*
D01*
D01*
G75*
G03X-000056647384Y-000076899795I6971799J4025199D01*
G74*G01*
D01*
D01*
G75*
G03X-000052622196Y-000077978381I4025449J6972402D01*
G74*G01*
D01*
D01*
G75*
G03X-000048596981Y-000076899795I85J8049753D01*
G74*G01*
D01*
D01*
G75*
G03X-000045650378Y-000073953192I-4025199J6971799D01*
G74*G01*
D01*
D01*
G75*
G03X-000044571793Y-000069927978I-6972402J4025449D01*
G74*G01*
D01*
D01*
G75*
G03X-000045650378Y-000065902789I-8049753J85D01*
G74*G01*
D01*
D01*
G75*
G03X-000047479077Y-000063734696I-6972146J-4025443D01*
G74*G01*
X-000048571785Y-000060927996D02*
D01*
D01*
G75*
G03X-000047479077Y-000063734696I4151060J30D01*
G74*G01*
X-000048571785Y-000060927996D02*
D01*
D01*
G75*
G03X-000048622178Y-000060877577I-50399J0D01*
G74*G01*
X-000056622188D02*
D01*
D01*
G75*
G03X-000056672581Y-000060927996I0J-50399D01*
G74*G01*
X-000057765289Y-000063734696D02*
D01*
D01*
G75*
G03X-000056672581Y-000060927996I-3058061J2806613D01*
G74*G01*
X-000057765289Y-000063734696D02*
D01*
D01*
G75*
G03X-000059593988Y-000065902789I5142802J-6192999D01*
G74*G01*
D01*
D01*
G75*
G03X-000060318294Y-000067566082I6973093J-4025852D01*
G74*G01*
D01*
D01*
G75*
G03X-000060320097Y-000067574693I43789J-13653D01*
G74*G01*
X-000066672891Y-000067579189D02*
D01*
D01*
G75*
G03X-000067401186Y-000065902789I-7699327J-2348515D01*
G74*G01*
D01*
D01*
G75*
G03X-000069229884Y-000063734696I-6972146J-4025443D01*
G74*G01*
X-000070322592Y-000060927996D02*
D01*
D01*
G75*
G03X-000069229884Y-000063734696I4151060J30D01*
G74*G01*
X-000070322592Y-000060927996D02*
D01*
D01*
G75*
G03X-000070372986Y-000060877577I-50399J0D01*
G74*G01*
X-000078372995D02*
D01*
D01*
G75*
G03X-000078423389Y-000060927996I0J-50399D01*
G74*G01*
X-000079516097Y-000063734696D02*
D01*
D01*
G75*
G03X-000078423389Y-000060927996I-3058061J2806613D01*
G74*G01*
X-000079516097Y-000063734696D02*
D01*
D01*
G75*
G03X-000081344795Y-000065902789I5142802J-6192999D01*
G74*G01*
D01*
D01*
G75*
G03X-000082423381Y-000069927978I6972402J-4025449D01*
G74*G01*
D01*
D01*
G75*
G03X-000081344795Y-000073953192I8049753J-85D01*
G74*G01*
D01*
D01*
G75*
G03X-000078398192Y-000076899795I6971799J4025199D01*
G74*G01*
X-000070347789D02*
D01*
X-000067401186Y-000073953192D02*
D01*
X-000066357398Y-000070675576D02*
X-000060637775D01*
X-000059593988Y-000073953192D02*
D01*
X-000056647384Y-000076899795D02*
D01*
X-000048596981D02*
D01*
X-000045650378Y-000073953192D02*
D01*
X-000047479077Y-000063734696D02*
D01*
X-000056622188Y-000060877577D02*
X-000048622178D01*
X-000057765289Y-000063734696D02*
D01*
X-000066672891Y-000067579189D02*
X-000060320097Y-000067574693D01*
X-000069229884Y-000063734696D02*
D01*
X-000078372995Y-000060877577D02*
X-000070372986D01*
X-000079516097Y-000063734696D02*
D01*
X-000081344795Y-000073953192D02*
D01*
M02*