%FSDAX66Y66*%
%MOMM*%
%SFA1B1*%

%IPPOS*%
%ADD10C,0.299999*%
%ADD11C,0.220000*%
%ADD12C,0.008900*%
%LNpcb1-1*%
%LPD*%
G36*
X-000055914290Y-000064293978D02*
X-000055904079Y-000064295299D01*
X-000055892700Y-000064296594*
X-000055880000Y-000064297788*
X-000055867376Y-000064300379*
X-000055836896Y-000064307999*
X-000055805298Y-000064320597*
X-000055790084Y-000064326998*
X-000055773599Y-000064335888*
X-000055758384Y-000064345997*
X-000055744389Y-000064357377*
X-000055743195Y-000064358697*
X-000055741874Y-000064359891*
X-000055738090Y-000064363676*
X-000055732984Y-000064368781*
X-000055726685Y-000064375182*
X-000055720284Y-000064383996*
X-000055713985Y-000064392886*
X-000055706391Y-000064402995*
X-000055691176Y-000064427100*
X-000055677181Y-000064456284*
X-000055665776Y-000064489177*
X-000055661991Y-000064508176*
X-000055659477Y-000064527277*
X-000055814087Y-000064546276*
Y-000064544981*
Y-000064543686*
X-000055815382Y-000064536091*
X-000055817897Y-000064525982*
X-000055821681Y-000064511986*
X-000055826787Y-000064498093*
X-000055833086Y-000064482878*
X-000055841976Y-000064467689*
X-000055853380Y-000064454989*
X-000055854676Y-000064453693*
X-000055859781Y-000064449883*
X-000055866080Y-000064444880*
X-000055876190Y-000064439800*
X-000055887594Y-000064434694*
X-000055900294Y-000064429589*
X-000055915483Y-000064425779*
X-000055931993Y-000064424585*
X-000055940883*
X-000055949697Y-000064427100*
X-000055961178Y-000064429589*
X-000055973776Y-000064433475*
X-000055987797Y-000064439800*
X-000056001691Y-000064448690*
X-000056015686Y-000064461288*
X-000056016880Y-000064462583*
X-000056020690Y-000064468883*
X-000056027091Y-000064476477*
X-000056033390Y-000064487983*
X-000056038496Y-000064503198*
X-000056044795Y-000064520876*
X-000056048579Y-000064541196*
X-000056049875Y-000064563980*
Y-000064565276*
Y-000064566495*
Y-000064574089*
X-000056048579Y-000064585494*
X-000056046090Y-000064599489*
X-000056042280Y-000064614679*
X-000056035879Y-000064629893*
X-000056028285Y-000064646378*
X-000056016880Y-000064660297*
X-000056015686Y-000064661592*
X-000056010581Y-000064665377*
X-000056004180Y-000064671676*
X-000055994096Y-000064678077*
X-000055982692Y-000064684376*
X-000055968798Y-000064690777*
X-000055953583Y-000064694485*
X-000055937099Y-000064695781*
X-000055925694*
X-000055916779Y-000064694485*
X-000055906695Y-000064693292*
X-000055893995Y-000064690777*
X-000055880000Y-000064686992*
X-000055864785Y-000064683081*
X-000055882590Y-000064812392*
X-000055892700*
X-000055905400Y-000064813688*
X-000055919293Y-000064814983*
X-000055934483Y-000064817498*
X-000055950993Y-000064822578*
X-000055967477Y-000064830198*
X-000055981396Y-000064838986*
X-000055982692Y-000064840281*
X-000055986476Y-000064844091*
X-000055992877Y-000064851686*
X-000055999176Y-000064860576*
X-000056005476Y-000064871981*
X-000056011876Y-000064885874*
X-000056015686Y-000064901191*
X-000056016880Y-000064918894*
Y-000064920190*
Y-000064926489*
X-000056015686Y-000064934084*
X-000056014391Y-000064942999*
X-000056010581Y-000064953083*
X-000056006796Y-000064964487*
X-000056000497Y-000064975892*
X-000055991582Y-000064986077*
X-000055990286Y-000064987297*
X-000055986476Y-000064989887*
X-000055981396Y-000064993697*
X-000055973776Y-000064998676*
X-000055963693Y-000065003781*
X-000055952288Y-000065007591*
X-000055938394Y-000065010080*
X-000055923078Y-000065011376*
X-000055916779*
X-000055909184Y-000065010080*
X-000055899075Y-000065007591*
X-000055887594Y-000065003781*
X-000055876190Y-000064998676*
X-000055863591Y-000064992377*
X-000055852187Y-000064982293*
X-000055850891Y-000064980997*
X-000055847081Y-000064977187*
X-000055843297Y-000064970888*
X-000055836896Y-000064961998*
X-000055830597Y-000064949298*
X-000055825491Y-000064935379*
X-000055820487Y-000064918894*
X-000055817897Y-000064899895*
X-000055670881Y-000064923974*
Y-000064925194*
X-000055672177Y-000064927784*
Y-000064931594*
X-000055673498Y-000064936598*
X-000055677181Y-000064950594*
X-000055682286Y-000064968297*
X-000055688687Y-000064987297*
X-000055696281Y-000065007591*
X-000055706391Y-000065027886*
X-000055716474Y-000065045590*
X-000055717795Y-000065048180*
X-000055722875Y-000065053184*
X-000055729174Y-000065060880*
X-000055739385Y-000065072285*
X-000055751984Y-000065083690*
X-000055765979Y-000065095094*
X-000055783683Y-000065106499*
X-000055802682Y-000065116583*
X-000055803977*
X-000055805298Y-000065117878*
X-000055812893Y-000065120393*
X-000055824297Y-000065125498*
X-000055839487Y-000065130578*
X-000055858486Y-000065134388*
X-000055878780Y-000065139392*
X-000055902885Y-000065141983*
X-000055928183Y-000065143176*
X-000055939588*
X-000055947183Y-000065141983*
X-000055957393Y-000065140687*
X-000055968798Y-000065139392*
X-000055982692Y-000065136877*
X-000055996687Y-000065134388*
X-000056025796Y-000065124177*
X-000056042280Y-000065119097*
X-000056057495Y-000065111477*
X-000056072684Y-000065102689*
X-000056089194Y-000065092478*
X-000056103088Y-000065081099*
X-000056117083Y-000065067180*
X-000056118277Y-000065065884*
X-000056119598Y-000065064690*
X-000056122087Y-000065060880*
X-000056125897Y-000065057096*
X-000056136082Y-000065044396*
X-000056147487Y-000065026590*
X-000056157596Y-000065006296*
X-000056167782Y-000064983487*
X-000056174081Y-000064956893*
X-000056176595Y-000064942999*
Y-000064928978*
Y-000064927784*
Y-000064923974*
X-000056175376Y-000064918894*
Y-000064911274*
X-000056172785Y-000064901191*
X-000056170296Y-000064890980*
X-000056166486Y-000064879575*
X-000056161381Y-000064866875*
X-000056155082Y-000064852981*
X-000056147487Y-000064838986*
X-000056137276Y-000064823797*
X-000056125897Y-000064809878*
X-000056111978Y-000064794688*
X-000056095493Y-000064780693*
X-000056077789Y-000064766799*
X-000056056199Y-000064754099*
X-000056057495*
X-000056059984Y-000064752880*
X-000056062575*
X-000056067579Y-000064751585*
X-000056081599Y-000064746479*
X-000056096789Y-000064740180*
X-000056115788Y-000064731290*
X-000056134787Y-000064718590*
X-000056152491Y-000064703375*
X-000056170296Y-000064685697*
X-000056171592Y-000064683081*
X-000056176595Y-000064676782*
X-000056184190Y-000064665377*
X-000056191785Y-000064650188*
X-000056199379Y-000064631189*
X-000056207075Y-000064608379*
X-000056212079Y-000064584275*
X-000056213375Y-000064556386*
Y-000064555090*
Y-000064551280*
Y-000064546276*
X-000056212079Y-000064538682*
X-000056210784Y-000064528496*
X-000056209590Y-000064518387*
X-000056207075Y-000064505687*
X-000056203291Y-000064491793*
X-000056193080Y-000064462583*
X-000056186781Y-000064447394*
X-000056179186Y-000064432180*
X-000056170296Y-000064415695*
X-000056158892Y-000064400480*
X-000056146192Y-000064385291*
X-000056132298Y-000064370077*
X-000056130977Y-000064368781*
X-000056128488Y-000064366292*
X-000056124678Y-000064362482*
X-000056118277Y-000064358697*
X-000056110682Y-000064352297*
X-000056100599Y-000064345997*
X-000056090388Y-000064338377*
X-000056077789Y-000064332078*
X-000056063794Y-000064324382*
X-000056048579Y-000064316787*
X-000056032095Y-000064310488*
X-000056014391Y-000064305383*
X-000055995392Y-000064300379*
X-000055976393Y-000064296594*
X-000055954777Y-000064293978*
X-000055933289Y-000064292784*
X-000055921884*
X-000055914290Y-000064293978*
G37*
G36*
X-000054976293Y-000064911274D02*
X-000055143679D01*
X-000055257700Y-000064603299*
X-000055290694Y-000064499388*
Y-000064500582*
X-000055293183Y-000064505687*
X-000055294479Y-000064511986*
X-000055296993Y-000064520876*
X-000055303293Y-000064537386*
X-000055305883Y-000064544981*
X-000055307179Y-000064551280*
Y-000064552576*
X-000055308398Y-000064555090*
X-000055309693Y-000064560196*
X-000055312183Y-000064567790*
X-000055317288Y-000064584275*
X-000055323587Y-000064603299*
X-000055438979Y-000064911274*
X-000055602479*
X-000055362881Y-000064307999*
X-000055219676*
X-000054976293Y-000064911274*
G37*
G36*
X-000055495799Y-000062954992D02*
X-000055669586D01*
Y-000062855475*
X-000055671085Y-000062856897*
X-000055677079Y-000062865889*
X-000055685994Y-000062877776*
X-000055696383Y-000062892584*
X-000055708296Y-000062908992*
X-000055721580Y-000062923775*
X-000055736490Y-000062937186*
X-000055749875Y-000062947575*
X-000055751399Y-000062949099*
X-000055755794Y-000062950598*
X-000055763185Y-000062954992*
X-000055773675Y-000062959488*
X-000055785486Y-000062962383*
X-000055798897Y-000062966879*
X-000055813782Y-000062968378*
X-000055830089Y-000062969876*
X-000055840477*
X-000055853888Y-000062968378*
X-000055870195Y-000062965380*
X-000055888077Y-000062960986*
X-000055910378Y-000062954992*
X-000055932578Y-000062946076*
X-000055954879Y-000062934189*
X-000055896992Y-000062770791*
X-000055895494Y-000062772290*
X-000055889499Y-000062775185*
X-000055879187Y-000062781180*
X-000055868798Y-000062787098*
X-000055853888Y-000062791594*
X-000055838979Y-000062797486*
X-000055824196Y-000062800484*
X-000055807787Y-000062801982*
X-000055801895*
X-000055794376Y-000062800484*
X-000055785486Y-000062798985*
X-000055775098Y-000062795988*
X-000055763185Y-000062792991*
X-000055751399Y-000062787098*
X-000055740985Y-000062779681*
X-000055739487Y-000062778182*
X-000055736490Y-000062775185*
X-000055731994Y-000062769292*
X-000055726076Y-000062761799*
X-000055718684Y-000062751385*
X-000055711191Y-000062736577*
X-000055703774Y-000062720194*
X-000055697882Y-000062700890*
Y-000062697893*
X-000055696383Y-000062694997*
X-000055694884Y-000062688978*
Y-000062683085*
X-000055693386Y-000062674195*
X-000055691887Y-000062662282*
X-000055690389Y-000062650395*
X-000055688890Y-000062635587*
X-000055687493Y-000062619178*
X-000055685994Y-000062599874*
Y-000062577599*
X-000055684496Y-000062553799*
X-000055682997Y-000062527078*
Y-000062497385*
Y-000062464696*
Y-000062247678*
X-000055495799*
Y-000062954992*
G37*
G36*
X-000053681477Y-000062231397D02*
X-000053671089Y-000062232895D01*
X-000053647289Y-000062235791*
X-000053619095Y-000062240287*
X-000053587878Y-000062247678*
X-000053555188Y-000062258092*
X-000053522499Y-000062272976*
X-000053520975*
X-000053518079Y-000062274475*
X-000053513583Y-000062277396*
X-000053507589Y-000062281892*
X-000053492781Y-000062292280*
X-000053473477Y-000062305692*
X-000053451175Y-000062323497*
X-000053428900Y-000062345798*
X-000053408097Y-000062372494*
X-000053388793Y-000062402288*
Y-000062403786*
X-000053387294Y-000062406682*
X-000053384297Y-000062411178*
X-000053381376Y-000062417096*
X-000053378379Y-000062425986*
X-000053375382Y-000062434978*
X-000053370886Y-000062446789*
X-000053366492Y-000062460174*
X-000053359075Y-000062489892*
X-000053351582Y-000062525579*
X-000053345689Y-000062565686*
X-000053344191Y-000062608790*
Y-000062610288*
Y-000062613286*
Y-000062617680*
X-000053345689Y-000062625097*
Y-000062632590*
X-000053347188Y-000062642978*
X-000053350083Y-000062666778*
X-000053354579Y-000062694997*
X-000053363495Y-000062724690*
X-000053373883Y-000062757380*
X-000053388793Y-000062790095*
Y-000062791594*
X-000053390292Y-000062794489*
X-000053393187Y-000062798985*
X-000053397683Y-000062804878*
X-000053408097Y-000062819788*
X-000053422981Y-000062839092*
X-000053440787Y-000062861393*
X-000053463088Y-000062883694*
X-000053488285Y-000062904497*
X-000053518079Y-000062923775*
X-000053519476*
X-000053522499Y-000062925299*
X-000053526994Y-000062928296*
X-000053532887Y-000062931192*
X-000053540279Y-000062934189*
X-000053550693Y-000062938685*
X-000053572994Y-000062947575*
X-000053601289Y-000062954992*
X-000053633878Y-000062962383*
X-000053668091Y-000062968378*
X-000053706776Y-000062969876*
X-000053721584*
X-000053733496Y-000062968378*
X-000053746882Y-000062966879*
X-000053763189Y-000062963882*
X-000053779597Y-000062960986*
X-000053798876Y-000062956490*
X-000053819679Y-000062950598*
X-000053840481Y-000062944578*
X-000053862782Y-000062935688*
X-000053883585Y-000062925299*
X-000053905886Y-000062913387*
X-000053928187Y-000062898477*
X-000053948990Y-000062883694*
X-000053968294Y-000062864390*
X-000053969793Y-000062862891*
X-000053972688Y-000062859894*
X-000053977184Y-000062853976*
X-000053984575Y-000062845086*
X-000053992094Y-000062836094*
X-000054000984Y-000062822785*
X-000054009899Y-000062809399*
X-000054020288Y-000062792991*
X-000054029178Y-000062773687*
X-000054038093Y-000062754383*
X-000054046983Y-000062732081*
X-000054054476Y-000062709780*
X-000054061893Y-000062684583*
X-000054066287Y-000062657786*
X-000054069284Y-000062631091*
X-000054070783Y-000062601398*
Y-000062599874*
Y-000062593880*
Y-000062586489*
X-000054069284Y-000062574576*
X-000054067786Y-000062561190*
X-000054064890Y-000062544883*
X-000054061893Y-000062527078*
X-000054057397Y-000062507799*
X-000054052978Y-000062486997*
X-000054045586Y-000062466093*
X-000054036595Y-000062443893*
X-000054027679Y-000062421592*
X-000054014293Y-000062399291*
X-000054000984Y-000062376989*
X-000053984575Y-000062356187*
X-000053966795Y-000062335384*
X-000053965297Y-000062333886*
X-000053962300Y-000062330888*
X-000053956381Y-000062324996*
X-000053948990Y-000062318976*
X-000053938576Y-000062311584*
X-000053926689Y-000062302694*
X-000053911779Y-000062292280*
X-000053895498Y-000062283390*
X-000053877591Y-000062272976*
X-000053858287Y-000062262588*
X-000053837484Y-000062253698*
X-000053813786Y-000062246179*
X-000053789986Y-000062240287*
X-000053763189Y-000062234292*
X-000053734995Y-000062231397*
X-000053706776Y-000062229898*
X-000053690393*
X-000053681477Y-000062231397*
G37*
G36*
X-000054966793D02*
X-000054956379Y-000062232895D01*
X-000054932580Y-000062235791*
X-000054904386Y-000062240287*
X-000054873194Y-000062247678*
X-000054840479Y-000062258092*
X-000054807789Y-000062272976*
X-000054806291*
X-000054803294Y-000062274475*
X-000054798899Y-000062277396*
X-000054792880Y-000062281892*
X-000054778097Y-000062292280*
X-000054758793Y-000062305692*
X-000054736492Y-000062323497*
X-000054714190Y-000062345798*
X-000054693388Y-000062372494*
X-000054674084Y-000062402288*
Y-000062403786*
X-000054672585Y-000062406682*
X-000054669588Y-000062411178*
X-000054666591Y-000062417096*
X-000054663695Y-000062425986*
X-000054660698Y-000062434978*
X-000054656177Y-000062446789*
X-000054651783Y-000062460174*
X-000054644391Y-000062489892*
X-000054636898Y-000062525579*
X-000054630980Y-000062565686*
X-000054629481Y-000062608790*
Y-000062610288*
Y-000062613286*
Y-000062617680*
X-000054630980Y-000062625097*
Y-000062632590*
X-000054632479Y-000062642978*
X-000054635400Y-000062666778*
X-000054639895Y-000062694997*
X-000054648785Y-000062724690*
X-000054659199Y-000062757380*
X-000054674084Y-000062790095*
Y-000062791594*
X-000054675582Y-000062794489*
X-000054678478Y-000062798985*
X-000054682999Y-000062804878*
X-000054693388Y-000062819788*
X-000054708298Y-000062839092*
X-000054726078Y-000062861393*
X-000054748379Y-000062883694*
X-000054773576Y-000062904497*
X-000054803294Y-000062923775*
X-000054804792*
X-000054807789Y-000062925299*
X-000054812285Y-000062928296*
X-000054818178Y-000062931192*
X-000054825595Y-000062934189*
X-000054835983Y-000062938685*
X-000054858285Y-000062947575*
X-000054886580Y-000062954992*
X-000054919295Y-000062962383*
X-000054953382Y-000062968378*
X-000054992092Y-000062969876*
X-000055006875*
X-000055018787Y-000062968378*
X-000055032198Y-000062966879*
X-000055048480Y-000062963882*
X-000055064888Y-000062960986*
X-000055084192Y-000062956490*
X-000055104995Y-000062950598*
X-000055125797Y-000062944578*
X-000055148099Y-000062935688*
X-000055168876Y-000062925299*
X-000055191177Y-000062913387*
X-000055213478Y-000062898477*
X-000055234281Y-000062883694*
X-000055253585Y-000062864390*
X-000055255083Y-000062862891*
X-000055257979Y-000062859894*
X-000055262475Y-000062853976*
X-000055269892Y-000062845086*
X-000055277385Y-000062836094*
X-000055286275Y-000062822785*
X-000055295190Y-000062809399*
X-000055305579Y-000062792991*
X-000055314494Y-000062773687*
X-000055323384Y-000062754383*
X-000055332299Y-000062732081*
X-000055339792Y-000062709780*
X-000055347184Y-000062684583*
X-000055351680Y-000062657786*
X-000055354575Y-000062631091*
X-000055356099Y-000062601398*
Y-000062599874*
Y-000062593880*
Y-000062586489*
X-000055354575Y-000062574576*
X-000055353077Y-000062561190*
X-000055350181Y-000062544883*
X-000055347184Y-000062527078*
X-000055342688Y-000062507799*
X-000055338294Y-000062486997*
X-000055330775Y-000062466093*
X-000055321885Y-000062443893*
X-000055312995Y-000062421592*
X-000055299584Y-000062399291*
X-000055286275Y-000062376989*
X-000055269892Y-000062356187*
X-000055252086Y-000062335384*
X-000055250588Y-000062333886*
X-000055247590Y-000062330888*
X-000055241698Y-000062324996*
X-000055234281Y-000062318976*
X-000055223892Y-000062311584*
X-000055211980Y-000062302694*
X-000055197095Y-000062292280*
X-000055180788Y-000062283390*
X-000055162881Y-000062272976*
X-000055143577Y-000062262588*
X-000055122775Y-000062253698*
X-000055098975Y-000062246179*
X-000055075277Y-000062240287*
X-000055048480Y-000062234292*
X-000055020286Y-000062231397*
X-000054992092Y-000062229898*
X-000054975683*
X-000054966793Y-000062231397*
G37*
G36*
X-000052250594Y-000063223978D02*
X-000052544776D01*
X-000052721586Y-000062556796*
X-000052895500Y-000063223978*
X-000053192578*
Y-000062247678*
X-000053009876*
X-000053008377Y-000063015876*
X-000052815185Y-000062247678*
X-000052626488*
X-000052433296Y-000063015876*
Y-000062247678*
X-000052250594*
Y-000063223978*
G37*
G36*
X-000050675489Y-000062232895D02*
X-000050662179D01*
X-000050645796Y-000062235791*
X-000050626492Y-000062238788*
X-000050605690Y-000062241785*
X-000050581890Y-000062247678*
X-000050556591Y-000062255196*
X-000050531395Y-000062264086*
X-000050504699Y-000062274475*
X-000050477877Y-000062287785*
X-000050451080Y-000062302694*
X-000050424384Y-000062320474*
X-000050399188Y-000062339880*
X-000050375388Y-000062363578*
X-000050373889Y-000062365077*
X-000050369393Y-000062369598*
X-000050363475Y-000062376989*
X-000050356084Y-000062387378*
X-000050347092Y-000062400789*
X-000050335281Y-000062417096*
X-000050324791Y-000062436375*
X-000050312980Y-000062458676*
X-000050301093Y-000062482476*
X-000050290679Y-000062510695*
X-000050280290Y-000062540489*
X-000050269876Y-000062573077*
X-000050262383Y-000062607291*
X-000050256490Y-000062644477*
X-000050251995Y-000062684583*
X-000050250598Y-000062726189*
Y-000062729186*
Y-000062736577*
X-000050251995Y-000062749988*
Y-000062766295*
X-000050254992Y-000062787098*
X-000050256490Y-000062810898*
X-000050260986Y-000062836094*
X-000050266879Y-000062864390*
X-000050272899Y-000062895581*
X-000050281789Y-000062925299*
X-000050290679Y-000062957989*
X-000050302591Y-000062989180*
X-000050317400Y-000063020397*
X-000050333783Y-000063050089*
X-000050353087Y-000063078283*
X-000050375388Y-000063105080*
X-000050376886Y-000063106579*
X-000050381281Y-000063110999*
X-000050388697Y-000063116993*
X-000050397689Y-000063125883*
X-000050410999Y-000063136297*
X-000050425883Y-000063148184*
X-000050443688Y-000063160097*
X-000050464491Y-000063173381*
X-000050486792Y-000063185294*
X-000050512091Y-000063197181*
X-000050538786Y-000063209093*
X-000050568479Y-000063219482*
X-000050599695Y-000063228397*
X-000050633884Y-000063234392*
X-000050669596Y-000063238786*
X-000050706680Y-000063240285*
X-000050724587*
X-000050736500Y-000063238786*
X-000050751282Y-000063237287*
X-000050769088Y-000063234392*
X-000050788392Y-000063231395*
X-000050809296Y-000063226899*
X-000050832994Y-000063220981*
X-000050855295Y-000063213589*
X-000050880594Y-000063206096*
X-000050904394Y-000063195682*
X-000050928092Y-000063182398*
X-000050951892Y-000063168987*
X-000050974193Y-000063152578*
X-000050996494Y-000063133274*
X-000050997993*
X-000050999491Y-000063130277*
X-000051006883Y-000063121387*
X-000051018795Y-000063108078*
X-000051033578Y-000063087275*
X-000051049986Y-000063061977*
X-000051067792Y-000063032284*
X-000051084099Y-000062996597*
X-000051097484Y-000062954992*
X-000050902895Y-000062908992*
Y-000062910389*
X-000050901396Y-000062911888*
X-000050899898Y-000062920778*
X-000050893980Y-000062934189*
X-000050886487Y-000062951995*
X-000050877597Y-000062971375*
X-000050864185Y-000062990679*
X-000050849377Y-000063009983*
X-000050830099Y-000063027788*
X-000050827076Y-000063029287*
X-000050819685Y-000063035281*
X-000050809296Y-000063042698*
X-000050792888Y-000063050089*
X-000050773584Y-000063058979*
X-000050749784Y-000063064999*
X-000050724587Y-000063070892*
X-000050696291Y-000063072391*
X-000050685877*
X-000050678486Y-000063070892*
X-000050669596Y-000063069393*
X-000050659182Y-000063067895*
X-000050633884Y-000063061977*
X-000050605690Y-000063053087*
X-000050575997Y-000063039675*
X-000050562586Y-000063030785*
X-000050547676Y-000063020397*
X-000050534392Y-000063006986*
X-000050520981Y-000062993574*
Y-000062992177*
X-000050517983Y-000062990679*
X-000050514986Y-000062984684*
X-000050510592Y-000062978792*
X-000050506096Y-000062969876*
X-000050500178Y-000062959488*
X-000050494184Y-000062947575*
X-000050488291Y-000062932691*
X-000050480899Y-000062916384*
X-000050474880Y-000062898477*
X-000050468987Y-000062877776*
X-000050464491Y-000062853976*
X-000050460097Y-000062830176*
X-000050457100Y-000062801982*
X-000050455576Y-000062772290*
X-000050454077Y-000062741098*
Y-000062739574*
Y-000062733580*
Y-000062723191*
X-000050455576Y-000062711279*
Y-000062694997*
X-000050457100Y-000062678589*
X-000050460097Y-000062659285*
X-000050462992Y-000062638482*
X-000050470485Y-000062595379*
X-000050482398Y-000062550776*
X-000050489789Y-000062529999*
X-000050498679Y-000062510695*
X-000050507595Y-000062492890*
X-000050519482Y-000062476583*
X-000050520981Y-000062475084*
X-000050522479Y-000062473586*
X-000050531395Y-000062464696*
X-000050546177Y-000062452783*
X-000050565583Y-000062437899*
X-000050590780Y-000062423090*
X-000050620498Y-000062411178*
X-000050654686Y-000062402288*
X-000050672593Y-000062400789*
X-000050691897Y-000062399291*
X-000050699289*
X-000050705181Y-000062400789*
X-000050720091Y-000062402288*
X-000050737897Y-000062405183*
X-000050760198Y-000062411178*
X-000050782499Y-000062420093*
X-000050804775Y-000062431980*
X-000050827076Y-000062448287*
X-000050830099Y-000062451284*
X-000050835991Y-000062457177*
X-000050846380Y-000062470588*
X-000050858293Y-000062486997*
X-000050871678Y-000062509298*
X-000050884988Y-000062537492*
X-000050898399Y-000062568683*
X-000050908788Y-000062607291*
X-000051100482Y-000062547881*
Y-000062546382*
X-000051098983Y-000062540489*
X-000051095986Y-000062532996*
X-000051091592Y-000062521084*
X-000051087096Y-000062507799*
X-000051081178Y-000062492890*
X-000051073685Y-000062475084*
X-000051064795Y-000062457177*
X-000051045491Y-000062418595*
X-000051020192Y-000062378488*
X-000050989077Y-000062341277*
X-000050972694Y-000062323497*
X-000050953390Y-000062308689*
X-000050951892Y-000062307190*
X-000050948894Y-000062305692*
X-000050942976Y-000062301196*
X-000050935585Y-000062296776*
X-000050925196Y-000062290782*
X-000050913284Y-000062284889*
X-000050898399Y-000062277396*
X-000050882092Y-000062269979*
X-000050864185Y-000062262588*
X-000050844881Y-000062255196*
X-000050824079Y-000062249177*
X-000050801778Y-000062243284*
X-000050776581Y-000062238788*
X-000050751282Y-000062234292*
X-000050723088Y-000062232895*
X-000050694793Y-000062231397*
X-000050685877*
X-000050675489Y-000062232895*
G37*
G36*
X-000054391788Y-000062231397D02*
X-000054379876D01*
X-000054364991Y-000062234292*
X-000054350183Y-000062237289*
X-000054333775Y-000062240287*
X-000054318992Y-000062246179*
X-000054317493Y-000062247678*
X-000054312997Y-000062249177*
X-000054305581Y-000062252199*
X-000054296691Y-000062258092*
X-000054277387Y-000062271478*
X-000054266896Y-000062280393*
X-000054259480Y-000062289283*
X-000054257981Y-000062290782*
X-000054256482Y-000062293779*
X-000054253587Y-000062301196*
X-000054249091Y-000062308689*
X-000054244697Y-000062320474*
X-000054240176Y-000062332387*
X-000054237178Y-000062347297*
X-000054234283Y-000062363578*
Y-000062365077*
X-000054232784Y-000062371097*
Y-000062379987*
X-000054231286Y-000062391899*
X-000054229787Y-000062409679*
Y-000062433479*
X-000054228288Y-000062461698*
Y-000062477980*
Y-000062495887*
Y-000062806376*
X-000054142081*
Y-000062954992*
X-000054228288*
Y-000063094692*
X-000054415486Y-000063204699*
Y-000062954992*
X-000054543299*
Y-000062806376*
X-000054415486*
Y-000062518188*
Y-000062516689*
Y-000062515191*
Y-000062510695*
Y-000062504777*
Y-000062489892*
Y-000062473586*
X-000054416985Y-000062455679*
Y-000062439397*
Y-000062425986*
X-000054418484Y-000062420093*
Y-000062417096*
Y-000062414175*
X-000054421481Y-000062408181*
X-000054427399Y-000062400789*
X-000054434790Y-000062393296*
X-000054437788Y-000062391899*
X-000054443782Y-000062388877*
X-000054454196Y-000062385879*
X-000054466083Y-000062384381*
X-000054470477*
X-000054476497Y-000062385879*
X-000054485387Y-000062387378*
X-000054495776Y-000062388877*
X-000054509187Y-000062391899*
X-000054523995Y-000062396293*
X-000054541775Y-000062402288*
X-000054558184Y-000062256593*
X-000054555186Y-000062255196*
X-000054546296Y-000062252199*
X-000054532885Y-000062247678*
X-000054515080Y-000062243284*
X-000054492779Y-000062238788*
X-000054467480Y-000062234292*
X-000054439286Y-000062231397*
X-000054409594Y-000062229898*
X-000054400678*
X-000054391788Y-000062231397*
G37*
G36*
X-000049376888Y-000063223978D02*
X-000049751284D01*
X-000049769090Y-000063222479*
X-000049788394*
X-000049828577Y-000063220981*
X-000049867185Y-000063217983*
X-000049884990Y-000063216485*
X-000049901398Y-000063213589*
X-000049914683Y-000063212091*
X-000049926595Y-000063209093*
X-000049928094*
X-000049931091Y-000063207595*
X-000049934088Y-000063206096*
X-000049939981Y-000063204699*
X-000049956288Y-000063198679*
X-000049975693Y-000063188291*
X-000049997995Y-000063176378*
X-000050020194Y-000063158598*
X-000050043994Y-000063137796*
X-000050066295Y-000063112497*
Y-000063110999*
X-000050069292Y-000063109576*
X-000050072290Y-000063105080*
X-000050075185Y-000063099188*
X-000050079681Y-000063091695*
X-000050084075Y-000063082779*
X-000050095988Y-000063061977*
X-000050106376Y-000063033783*
X-000050115292Y-000063001093*
X-000050121286Y-000062963882*
X-000050124283Y-000062922277*
Y-000062920778*
Y-000062917882*
Y-000062913387*
Y-000062907494*
X-000050122785Y-000062891085*
X-000050119788Y-000062870283*
X-000050116790Y-000062846483*
X-000050110898Y-000062821286*
X-000050101982Y-000062795988*
X-000050091594Y-000062772290*
X-000050090095Y-000062769292*
X-000050085599Y-000062761799*
X-000050078182Y-000062751385*
X-000050069292Y-000062738076*
X-000050057380Y-000062721693*
X-000050042495Y-000062705386*
X-000050026189Y-000062690476*
X-000050008383Y-000062675693*
X-000050006885Y-000062674195*
X-000049999392Y-000062669699*
X-000049988978Y-000062663781*
X-000049977090Y-000062657786*
X-000049960784Y-000062648896*
X-000049944477Y-000062641480*
X-000049925198Y-000062635587*
X-000049905793Y-000062629592*
X-000049902897*
X-000049898376Y-000062628094*
X-000049892483*
X-000049884990Y-000062626595*
X-000049876075Y-000062625097*
X-000049865686Y-000062623700*
X-000049853799*
X-000049840489Y-000062622176*
X-000049825579Y-000062620677*
X-000049809196Y-000062619178*
X-000049789892Y-000062617680*
X-000049770588*
X-000049749786Y-000062616181*
X-000049574475*
Y-000062247678*
X-000049376888*
Y-000063223978*
G37*
G36*
X-000051269900D02*
X-000051699287D01*
X-000051724585Y-000063222479*
X-000051752779Y-000063220981*
X-000051780998Y-000063219482*
X-000051807795Y-000063216485*
X-000051831595Y-000063213589*
X-000051834491*
X-000051841984Y-000063212091*
X-000051852398Y-000063209093*
X-000051865682Y-000063204699*
X-000051882090Y-000063200178*
X-000051899896Y-000063192787*
X-000051916177Y-000063183795*
X-000051934084Y-000063173381*
X-000051935583Y-000063171984*
X-000051941476Y-000063167488*
X-000051950391Y-000063161595*
X-000051960780Y-000063151080*
X-000051971194Y-000063139294*
X-000051984579Y-000063125883*
X-000051996492Y-000063109576*
X-000052008379Y-000063091695*
X-000052009878Y-000063088697*
X-000052012799Y-000063082779*
X-000052018793Y-000063072391*
X-000052024686Y-000063058979*
X-000052029182Y-000063041199*
X-000052035075Y-000063021895*
X-000052038097Y-000063001093*
X-000052039596Y-000062977293*
Y-000062974296*
Y-000062965380*
X-000052038097Y-000062951995*
X-000052035075Y-000062935688*
X-000052030680Y-000062916384*
X-000052023187Y-000062895581*
X-000052014297Y-000062873280*
X-000052002385Y-000062850979*
X-000052000886Y-000062847982*
X-000051994993Y-000062842089*
X-000051987577Y-000062831675*
X-000051975689Y-000062819788*
X-000051960780Y-000062804878*
X-000051944498Y-000062791594*
X-000051923696Y-000062778182*
X-000051901394Y-000062766295*
X-000051902893*
X-000051905789Y-000062764797*
X-000051910284Y-000062763298*
X-000051916177Y-000062761799*
X-000051932586Y-000062754383*
X-000051951890Y-000062745493*
X-000051974191Y-000062733580*
X-000051996492Y-000062718797*
X-000052018793Y-000062699392*
X-000052038097Y-000062677192*
X-000052039596Y-000062674195*
X-000052045489Y-000062666778*
X-000052052982Y-000062653392*
X-000052063396Y-000062635587*
X-000052072286Y-000062613286*
X-000052079677Y-000062589486*
X-000052085595Y-000062561190*
X-000052087094Y-000062529999*
Y-000062527078*
Y-000062518188*
X-000052085595Y-000062506275*
X-000052082700Y-000062488394*
X-000052079677Y-000062469090*
X-000052073784Y-000062446789*
X-000052066291Y-000062424487*
X-000052055877Y-000062400789*
X-000052054379Y-000062397792*
X-000052049984Y-000062390375*
X-000052042491Y-000062378488*
X-000052033576Y-000062365077*
X-000052021790Y-000062348795*
X-000052006881Y-000062332387*
X-000051990599Y-000062314582*
X-000051971194Y-000062299697*
X-000051968298Y-000062298199*
X-000051962278Y-000062293779*
X-000051950391Y-000062287785*
X-000051934084Y-000062280393*
X-000051914780Y-000062271478*
X-000051892479Y-000062264086*
X-000051867181Y-000062258092*
X-000051838987Y-000062253698*
X-000051832992*
X-000051828598Y-000062252199*
X-000051813688*
X-000051803300Y-000062250675*
X-000051776579*
X-000051758799Y-000062249177*
X-000051718591*
X-000051693394Y-000062247678*
X-000051269900*
Y-000063223978*
G37*
G36*
X-000077246581Y-000062954992D02*
X-000077420393D01*
Y-000062855475*
X-000077421892Y-000062856897*
X-000077427886Y-000062865889*
X-000077436776Y-000062877776*
X-000077447190Y-000062892584*
X-000077459078Y-000062908992*
X-000077472387Y-000062923775*
X-000077487297Y-000062937186*
X-000077500683Y-000062947575*
X-000077502181Y-000062949099*
X-000077506576Y-000062950598*
X-000077514094Y-000062954992*
X-000077524483Y-000062959488*
X-000077536294Y-000062962383*
X-000077549679Y-000062966879*
X-000077564589Y-000062968378*
X-000077580896Y-000062969876*
X-000077591285*
X-000077604696Y-000062968378*
X-000077620977Y-000062965380*
X-000077638884Y-000062960986*
X-000077661084Y-000062954992*
X-000077683385Y-000062946076*
X-000077705686Y-000062934189*
X-000077647800Y-000062770791*
X-000077646276Y-000062772290*
X-000077640383Y-000062775185*
X-000077629994Y-000062781180*
X-000077619580Y-000062787098*
X-000077604696Y-000062791594*
X-000077589786Y-000062797486*
X-000077574978Y-000062800484*
X-000077558595Y-000062801982*
X-000077552677*
X-000077545184Y-000062800484*
X-000077536294Y-000062798985*
X-000077525880Y-000062795988*
X-000077514094Y-000062792991*
X-000077502181Y-000062787098*
X-000077491793Y-000062779681*
X-000077490294Y-000062778182*
X-000077487297Y-000062775185*
X-000077482776Y-000062769292*
X-000077476883Y-000062761799*
X-000077469492Y-000062751385*
X-000077461999Y-000062736577*
X-000077454582Y-000062720194*
X-000077448689Y-000062700890*
Y-000062697893*
X-000077447190Y-000062694997*
X-000077445692Y-000062688978*
Y-000062683085*
X-000077444193Y-000062674195*
X-000077442695Y-000062662282*
X-000077441196Y-000062650395*
X-000077439799Y-000062635587*
X-000077438275Y-000062619178*
X-000077436776Y-000062599874*
Y-000062577599*
X-000077435278Y-000062553799*
X-000077433779Y-000062527078*
Y-000062497385*
Y-000062464696*
Y-000062247678*
X-000077246581*
Y-000062954992*
G37*
G36*
X-000075432285Y-000062231397D02*
X-000075421896Y-000062232895D01*
X-000075398096Y-000062235791*
X-000075369877Y-000062240287*
X-000075338686Y-000062247678*
X-000075305996Y-000062258092*
X-000075273281Y-000062272976*
X-000075271782*
X-000075268886Y-000062274475*
X-000075264391Y-000062277396*
X-000075258498Y-000062281892*
X-000075243588Y-000062292280*
X-000075224284Y-000062305692*
X-000075201983Y-000062323497*
X-000075179682Y-000062345798*
X-000075158879Y-000062372494*
X-000075139575Y-000062402288*
Y-000062403786*
X-000075138076Y-000062406682*
X-000075135079Y-000062411178*
X-000075132082Y-000062417096*
X-000075129186Y-000062425986*
X-000075126189Y-000062434978*
X-000075121693Y-000062446789*
X-000075117299Y-000062460174*
X-000075109882Y-000062489892*
X-000075102389Y-000062525579*
X-000075096497Y-000062565686*
X-000075094998Y-000062608790*
Y-000062610288*
Y-000062613286*
Y-000062617680*
X-000075096497Y-000062625097*
Y-000062632590*
X-000075097995Y-000062642978*
X-000075100891Y-000062666778*
X-000075105387Y-000062694997*
X-000075114277Y-000062724690*
X-000075124691Y-000062757380*
X-000075139575Y-000062790095*
Y-000062791594*
X-000075141099Y-000062794489*
X-000075143995Y-000062798985*
X-000075148490Y-000062804878*
X-000075158879Y-000062819788*
X-000075173789Y-000062839092*
X-000075191594Y-000062861393*
X-000075213895Y-000062883694*
X-000075239092Y-000062904497*
X-000075268886Y-000062923775*
X-000075270283*
X-000075273281Y-000062925299*
X-000075277776Y-000062928296*
X-000075283695Y-000062931192*
X-000075291086Y-000062934189*
X-000075301475Y-000062938685*
X-000075323776Y-000062947575*
X-000075352097Y-000062954992*
X-000075384787Y-000062962383*
X-000075418899Y-000062968378*
X-000075457583Y-000062969876*
X-000075472391*
X-000075484278Y-000062968378*
X-000075497690Y-000062966879*
X-000075513996Y-000062963882*
X-000075530379Y-000062960986*
X-000075549683Y-000062956490*
X-000075570486Y-000062950598*
X-000075591289Y-000062944578*
X-000075613590Y-000062935688*
X-000075634392Y-000062925299*
X-000075656694Y-000062913387*
X-000075678995Y-000062898477*
X-000075699797Y-000062883694*
X-000075719076Y-000062864390*
X-000075720575Y-000062862891*
X-000075723496Y-000062859894*
X-000075727991Y-000062853976*
X-000075735383Y-000062845086*
X-000075742876Y-000062836094*
X-000075751791Y-000062822785*
X-000075760681Y-000062809399*
X-000075771095Y-000062792991*
X-000075779985Y-000062773687*
X-000075788875Y-000062754383*
X-000075797791Y-000062732081*
X-000075805284Y-000062709780*
X-000075812675Y-000062684583*
X-000075817095Y-000062657786*
X-000075820092Y-000062631091*
X-000075821590Y-000062601398*
Y-000062599874*
Y-000062593880*
Y-000062586489*
X-000075820092Y-000062574576*
X-000075818593Y-000062561190*
X-000075815698Y-000062544883*
X-000075812675Y-000062527078*
X-000075808179Y-000062507799*
X-000075803785Y-000062486997*
X-000075796292Y-000062466093*
X-000075787377Y-000062443893*
X-000075778487Y-000062421592*
X-000075765075Y-000062399291*
X-000075751791Y-000062376989*
X-000075735383Y-000062356187*
X-000075717577Y-000062335384*
X-000075716079Y-000062333886*
X-000075713082Y-000062330888*
X-000075707189Y-000062324996*
X-000075699797Y-000062318976*
X-000075689383Y-000062311584*
X-000075677496Y-000062302694*
X-000075662586Y-000062292280*
X-000075646280Y-000062283390*
X-000075628398Y-000062272976*
X-000075609094Y-000062262588*
X-000075588291Y-000062253698*
X-000075564593Y-000062246179*
X-000075540793Y-000062240287*
X-000075513996Y-000062234292*
X-000075485777Y-000062231397*
X-000075457583Y-000062229898*
X-000075441175*
X-000075432285Y-000062231397*
G37*
G36*
X-000076717575D02*
X-000076707187Y-000062232895D01*
X-000076683387Y-000062235791*
X-000076655193Y-000062240287*
X-000076623976Y-000062247678*
X-000076591287Y-000062258092*
X-000076558597Y-000062272976*
X-000076557098*
X-000076554177Y-000062274475*
X-000076549681Y-000062277396*
X-000076543687Y-000062281892*
X-000076528879Y-000062292280*
X-000076509575Y-000062305692*
X-000076487299Y-000062323497*
X-000076464998Y-000062345798*
X-000076444195Y-000062372494*
X-000076424891Y-000062402288*
Y-000062403786*
X-000076423393Y-000062406682*
X-000076420395Y-000062411178*
X-000076417398Y-000062417096*
X-000076414477Y-000062425986*
X-000076411480Y-000062434978*
X-000076407086Y-000062446789*
X-000076402590Y-000062460174*
X-000076395199Y-000062489892*
X-000076387680Y-000062525579*
X-000076381787Y-000062565686*
X-000076380289Y-000062608790*
Y-000062610288*
Y-000062613286*
Y-000062617680*
X-000076381787Y-000062625097*
Y-000062632590*
X-000076383286Y-000062642978*
X-000076386283Y-000062666778*
X-000076390677Y-000062694997*
X-000076399593Y-000062724690*
X-000076409981Y-000062757380*
X-000076424891Y-000062790095*
Y-000062791594*
X-000076426390Y-000062794489*
X-000076429285Y-000062798985*
X-000076433781Y-000062804878*
X-000076444195Y-000062819788*
X-000076459080Y-000062839092*
X-000076476885Y-000062861393*
X-000076499186Y-000062883694*
X-000076524383Y-000062904497*
X-000076554177Y-000062923775*
X-000076555600*
X-000076558597Y-000062925299*
X-000076563093Y-000062928296*
X-000076568985Y-000062931192*
X-000076576377Y-000062934189*
X-000076586791Y-000062938685*
X-000076609092Y-000062947575*
X-000076637388Y-000062954992*
X-000076670077Y-000062962383*
X-000076704190Y-000062968378*
X-000076742899Y-000062969876*
X-000076757682*
X-000076769595Y-000062968378*
X-000076782980Y-000062966879*
X-000076799287Y-000062963882*
X-000076815696Y-000062960986*
X-000076835000Y-000062956490*
X-000076855777Y-000062950598*
X-000076876579Y-000062944578*
X-000076898881Y-000062935688*
X-000076919683Y-000062925299*
X-000076941984Y-000062913387*
X-000076964286Y-000062898477*
X-000076985088Y-000062883694*
X-000077004392Y-000062864390*
X-000077005891Y-000062862891*
X-000077008786Y-000062859894*
X-000077013282Y-000062853976*
X-000077020699Y-000062845086*
X-000077028192Y-000062836094*
X-000077037082Y-000062822785*
X-000077045997Y-000062809399*
X-000077056386Y-000062792991*
X-000077065276Y-000062773687*
X-000077074191Y-000062754383*
X-000077083081Y-000062732081*
X-000077090574Y-000062709780*
X-000077097991Y-000062684583*
X-000077102385Y-000062657786*
X-000077105383Y-000062631091*
X-000077106881Y-000062601398*
Y-000062599874*
Y-000062593880*
Y-000062586489*
X-000077105383Y-000062574576*
X-000077103884Y-000062561190*
X-000077100988Y-000062544883*
X-000077097991Y-000062527078*
X-000077093495Y-000062507799*
X-000077089076Y-000062486997*
X-000077081583Y-000062466093*
X-000077072693Y-000062443893*
X-000077063777Y-000062421592*
X-000077050493Y-000062399291*
X-000077037082Y-000062376989*
X-000077020699Y-000062356187*
X-000077002894Y-000062335384*
X-000077001395Y-000062333886*
X-000076998398Y-000062330888*
X-000076992480Y-000062324996*
X-000076985088Y-000062318976*
X-000076974700Y-000062311584*
X-000076962787Y-000062302694*
X-000076947877Y-000062292280*
X-000076931596Y-000062283390*
X-000076913689Y-000062272976*
X-000076894385Y-000062262588*
X-000076873582Y-000062253698*
X-000076849884Y-000062246179*
X-000076826084Y-000062240287*
X-000076799287Y-000062234292*
X-000076771093Y-000062231397*
X-000076742899Y-000062229898*
X-000076726491*
X-000076717575Y-000062231397*
G37*
G36*
X-000074001376Y-000063223978D02*
X-000074295584D01*
X-000074472393Y-000062556796*
X-000074646282Y-000063223978*
X-000074943385*
Y-000062247678*
X-000074760683*
X-000074759185Y-000063015876*
X-000074565992Y-000062247678*
X-000074377296*
X-000074184078Y-000063015876*
Y-000062247678*
X-000074001376*
Y-000063223978*
G37*
G36*
X-000072426296Y-000062232895D02*
X-000072412885D01*
X-000072396578Y-000062235791*
X-000072377300Y-000062238788*
X-000072356497Y-000062241785*
X-000072332697Y-000062247678*
X-000072307399Y-000062255196*
X-000072282177Y-000062264086*
X-000072255380Y-000062274475*
X-000072228684Y-000062287785*
X-000072201989Y-000062302694*
X-000072175192Y-000062320474*
X-000072149893Y-000062339880*
X-000072126195Y-000062363578*
X-000072124697Y-000062365077*
X-000072120175Y-000062369598*
X-000072114283Y-000062376989*
X-000072106891Y-000062387378*
X-000072097900Y-000062400789*
X-000072086089Y-000062417096*
X-000072075675Y-000062436375*
X-000072063787Y-000062458676*
X-000072051875Y-000062482476*
X-000072041486Y-000062510695*
X-000072031098Y-000062540489*
X-000072020684Y-000062573077*
X-000072013191Y-000062607291*
X-000072007298Y-000062644477*
X-000072002777Y-000062684583*
X-000072001380Y-000062726189*
Y-000062729186*
Y-000062736577*
X-000072002777Y-000062749988*
Y-000062766295*
X-000072005799Y-000062787098*
X-000072007298Y-000062810898*
X-000072011794Y-000062836094*
X-000072017686Y-000062864390*
X-000072023681Y-000062895581*
X-000072032596Y-000062925299*
X-000072041486Y-000062957989*
X-000072053399Y-000062989180*
X-000072068182Y-000063020397*
X-000072084590Y-000063050089*
X-000072103894Y-000063078283*
X-000072126195Y-000063105080*
X-000072127694Y-000063106579*
X-000072132088Y-000063110999*
X-000072139479Y-000063116993*
X-000072148496Y-000063125883*
X-000072161781Y-000063136297*
X-000072176690Y-000063148184*
X-000072194496Y-000063160097*
X-000072215298Y-000063173381*
X-000072237600Y-000063185294*
X-000072262898Y-000063197181*
X-000072289593Y-000063209093*
X-000072319286Y-000063219482*
X-000072350477Y-000063228397*
X-000072384691Y-000063234392*
X-000072420378Y-000063238786*
X-000072457487Y-000063240285*
X-000072475394*
X-000072487282Y-000063238786*
X-000072502090Y-000063237287*
X-000072519895Y-000063234392*
X-000072539275Y-000063231395*
X-000072560078Y-000063226899*
X-000072583776Y-000063220981*
X-000072606077Y-000063213589*
X-000072631376Y-000063206096*
X-000072655176Y-000063195682*
X-000072678899Y-000063182398*
X-000072702699Y-000063168987*
X-000072724975Y-000063152578*
X-000072747276Y-000063133274*
X-000072748775*
X-000072750299Y-000063130277*
X-000072757690Y-000063121387*
X-000072769577Y-000063108078*
X-000072784385Y-000063087275*
X-000072800794Y-000063061977*
X-000072818599Y-000063032284*
X-000072834982Y-000062996597*
X-000072848292Y-000062954992*
X-000072653677Y-000062908992*
Y-000062910389*
X-000072652178Y-000062911888*
X-000072650680Y-000062920778*
X-000072644787Y-000062934189*
X-000072637294Y-000062951995*
X-000072628379Y-000062971375*
X-000072614993Y-000062990679*
X-000072600185Y-000063009983*
X-000072580881Y-000063027788*
X-000072577883Y-000063029287*
X-000072570492Y-000063035281*
X-000072560078Y-000063042698*
X-000072543695Y-000063050089*
X-000072524391Y-000063058979*
X-000072500591Y-000063064999*
X-000072475394Y-000063070892*
X-000072447099Y-000063072391*
X-000072436685*
X-000072429293Y-000063070892*
X-000072420378Y-000063069393*
X-000072409989Y-000063067895*
X-000072384691Y-000063061977*
X-000072356497Y-000063053087*
X-000072326779Y-000063039675*
X-000072313393Y-000063030785*
X-000072298483Y-000063020397*
X-000072285199Y-000063006986*
X-000072271788Y-000062993574*
Y-000062992177*
X-000072268791Y-000062990679*
X-000072265794Y-000062984684*
X-000072261399Y-000062978792*
X-000072256878Y-000062969876*
X-000072250985Y-000062959488*
X-000072244991Y-000062947575*
X-000072239098Y-000062932691*
X-000072231681Y-000062916384*
X-000072225687Y-000062898477*
X-000072219794Y-000062877776*
X-000072215298Y-000062853976*
X-000072210879Y-000062830176*
X-000072207882Y-000062801982*
X-000072206383Y-000062772290*
X-000072204884Y-000062741098*
Y-000062739574*
Y-000062733580*
Y-000062723191*
X-000072206383Y-000062711279*
Y-000062694997*
X-000072207882Y-000062678589*
X-000072210879Y-000062659285*
X-000072213774Y-000062638482*
X-000072221293Y-000062595379*
X-000072233180Y-000062550776*
X-000072240597Y-000062529999*
X-000072249487Y-000062510695*
X-000072258377Y-000062492890*
X-000072270289Y-000062476583*
X-000072271788Y-000062475084*
X-000072273287Y-000062473586*
X-000072282177Y-000062464696*
X-000072297086Y-000062452783*
X-000072316390Y-000062437899*
X-000072341587Y-000062423090*
X-000072371381Y-000062411178*
X-000072405494Y-000062402288*
X-000072423299Y-000062400789*
X-000072442679Y-000062399291*
X-000072450096*
X-000072455989Y-000062400789*
X-000072470899Y-000062402288*
X-000072488679Y-000062405183*
X-000072510980Y-000062411178*
X-000072533281Y-000062420093*
X-000072555582Y-000062431980*
X-000072577883Y-000062448287*
X-000072580881Y-000062451284*
X-000072586799Y-000062457177*
X-000072597187Y-000062470588*
X-000072609075Y-000062486997*
X-000072622486Y-000062509298*
X-000072635795Y-000062537492*
X-000072649181Y-000062568683*
X-000072659595Y-000062607291*
X-000072851289Y-000062547881*
Y-000062546382*
X-000072849790Y-000062540489*
X-000072846793Y-000062532996*
X-000072842399Y-000062521084*
X-000072837878Y-000062507799*
X-000072831985Y-000062492890*
X-000072824492Y-000062475084*
X-000072815577Y-000062457177*
X-000072796298Y-000062418595*
X-000072771000Y-000062378488*
X-000072739885Y-000062341277*
X-000072723476Y-000062323497*
X-000072704198Y-000062308689*
X-000072702699Y-000062307190*
X-000072699676Y-000062305692*
X-000072693784Y-000062301196*
X-000072686392Y-000062296776*
X-000072675978Y-000062290782*
X-000072664091Y-000062284889*
X-000072649181Y-000062277396*
X-000072632874Y-000062269979*
X-000072614993Y-000062262588*
X-000072595689Y-000062255196*
X-000072574886Y-000062249177*
X-000072552585Y-000062243284*
X-000072527388Y-000062238788*
X-000072502090Y-000062234292*
X-000072473896Y-000062232895*
X-000072445575Y-000062231397*
X-000072436685*
X-000072426296Y-000062232895*
G37*
G36*
X-000076142596Y-000062231397D02*
X-000076130683D01*
X-000076115799Y-000062234292*
X-000076100990Y-000062237289*
X-000076084582Y-000062240287*
X-000076069698Y-000062246179*
X-000076068275Y-000062247678*
X-000076063779Y-000062249177*
X-000076056388Y-000062252199*
X-000076047498Y-000062258092*
X-000076028194Y-000062271478*
X-000076017678Y-000062280393*
X-000076010287Y-000062289283*
X-000076008788Y-000062290782*
X-000076007290Y-000062293779*
X-000076004394Y-000062301196*
X-000075999898Y-000062308689*
X-000075995479Y-000062320474*
X-000075990983Y-000062332387*
X-000075987986Y-000062347297*
X-000075985090Y-000062363578*
Y-000062365077*
X-000075983592Y-000062371097*
Y-000062379987*
X-000075982093Y-000062391899*
X-000075980594Y-000062409679*
Y-000062433479*
X-000075979096Y-000062461698*
Y-000062477980*
Y-000062495887*
Y-000062806376*
X-000075892888*
Y-000062954992*
X-000075979096*
Y-000063094692*
X-000076166294Y-000063204699*
Y-000062954992*
X-000076294081*
Y-000062806376*
X-000076166294*
Y-000062518188*
Y-000062516689*
Y-000062515191*
Y-000062510695*
Y-000062504777*
Y-000062489892*
Y-000062473586*
X-000076167792Y-000062455679*
Y-000062439397*
Y-000062425986*
X-000076169291Y-000062420093*
Y-000062417096*
Y-000062414175*
X-000076172288Y-000062408181*
X-000076178181Y-000062400789*
X-000076185699Y-000062393296*
X-000076188595Y-000062391899*
X-000076194589Y-000062388877*
X-000076204978Y-000062385879*
X-000076216891Y-000062384381*
X-000076221285*
X-000076227279Y-000062385879*
X-000076236195Y-000062387378*
X-000076246583Y-000062388877*
X-000076259893Y-000062391899*
X-000076274777Y-000062396293*
X-000076292583Y-000062402288*
X-000076308991Y-000062256593*
X-000076305994Y-000062255196*
X-000076297078Y-000062252199*
X-000076283693Y-000062247678*
X-000076265887Y-000062243284*
X-000076243586Y-000062238788*
X-000076218288Y-000062234292*
X-000076190094Y-000062231397*
X-000076160376Y-000062229898*
X-000076151486*
X-000076142596Y-000062231397*
G37*
G36*
X-000071127594Y-000063223978D02*
X-000071502092D01*
X-000071519897Y-000063222479*
X-000071539176*
X-000071579384Y-000063220981*
X-000071617992Y-000063217983*
X-000071635797Y-000063216485*
X-000071652180Y-000063213589*
X-000071665490Y-000063212091*
X-000071677377Y-000063209093*
X-000071678876*
X-000071681898Y-000063207595*
X-000071684896Y-000063206096*
X-000071690788Y-000063204699*
X-000071707197Y-000063198679*
X-000071726475Y-000063188291*
X-000071748675Y-000063176378*
X-000071770976Y-000063158598*
X-000071794776Y-000063137796*
X-000071817077Y-000063112497*
Y-000063110999*
X-000071820074Y-000063109576*
X-000071823097Y-000063105080*
X-000071825993Y-000063099188*
X-000071830488Y-000063091695*
X-000071834883Y-000063082779*
X-000071846795Y-000063061977*
X-000071857184Y-000063033783*
X-000071866099Y-000063001093*
X-000071872094Y-000062963882*
X-000071875091Y-000062922277*
Y-000062920778*
Y-000062917882*
Y-000062913387*
Y-000062907494*
X-000071873592Y-000062891085*
X-000071870595Y-000062870283*
X-000071867598Y-000062846483*
X-000071861680Y-000062821286*
X-000071852790Y-000062795988*
X-000071842376Y-000062772290*
X-000071840877Y-000062769292*
X-000071836381Y-000062761799*
X-000071828990Y-000062751385*
X-000071820074Y-000062738076*
X-000071808187Y-000062721693*
X-000071793277Y-000062705386*
X-000071776996Y-000062690476*
X-000071759191Y-000062675693*
X-000071757692Y-000062674195*
X-000071750199Y-000062669699*
X-000071739785Y-000062663781*
X-000071727999Y-000062657786*
X-000071711591Y-000062648896*
X-000071695284Y-000062641480*
X-000071675879Y-000062635587*
X-000071656575Y-000062629592*
X-000071653679*
X-000071649183Y-000062628094*
X-000071643290*
X-000071635797Y-000062626595*
X-000071626882Y-000062625097*
X-000071616493Y-000062623700*
X-000071604581*
X-000071591195Y-000062622176*
X-000071576387Y-000062620677*
X-000071559978Y-000062619178*
X-000071540674Y-000062617680*
X-000071521396*
X-000071500593Y-000062616181*
X-000071325282*
Y-000062247678*
X-000071127594*
Y-000063223978*
G37*
G36*
X-000073020682D02*
X-000073450094D01*
X-000073475392Y-000063222479*
X-000073503586Y-000063220981*
X-000073531780Y-000063219482*
X-000073558577Y-000063216485*
X-000073582377Y-000063213589*
X-000073585298*
X-000073592791Y-000063212091*
X-000073603180Y-000063209093*
X-000073616489Y-000063204699*
X-000073632898Y-000063200178*
X-000073650678Y-000063192787*
X-000073667086Y-000063183795*
X-000073684892Y-000063173381*
X-000073686390Y-000063171984*
X-000073692283Y-000063167488*
X-000073701198Y-000063161595*
X-000073711587Y-000063151080*
X-000073721976Y-000063139294*
X-000073735387Y-000063125883*
X-000073747299Y-000063109576*
X-000073759187Y-000063091695*
X-000073760685Y-000063088697*
X-000073763581Y-000063082779*
X-000073769575Y-000063072391*
X-000073775493Y-000063058979*
X-000073779989Y-000063041199*
X-000073785882Y-000063021895*
X-000073788879Y-000063001093*
X-000073790378Y-000062977293*
Y-000062974296*
Y-000062965380*
X-000073788879Y-000062951995*
X-000073785882Y-000062935688*
X-000073781488Y-000062916384*
X-000073773995Y-000062895581*
X-000073765079Y-000062873280*
X-000073753192Y-000062850979*
X-000073751694Y-000062847982*
X-000073745775Y-000062842089*
X-000073738384Y-000062831675*
X-000073726497Y-000062819788*
X-000073711587Y-000062804878*
X-000073695280Y-000062791594*
X-000073674478Y-000062778182*
X-000073652176Y-000062766295*
X-000073653675*
X-000073656596Y-000062764797*
X-000073661092Y-000062763298*
X-000073667086Y-000062761799*
X-000073683393Y-000062754383*
X-000073702697Y-000062745493*
X-000073724998Y-000062733580*
X-000073747299Y-000062718797*
X-000073769575Y-000062699392*
X-000073788879Y-000062677192*
X-000073790378Y-000062674195*
X-000073796296Y-000062666778*
X-000073803687Y-000062653392*
X-000073814178Y-000062635587*
X-000073823093Y-000062613286*
X-000073830484Y-000062589486*
X-000073836377Y-000062561190*
X-000073837876Y-000062529999*
Y-000062527078*
Y-000062518188*
X-000073836377Y-000062506275*
X-000073833482Y-000062488394*
X-000073830484Y-000062469090*
X-000073824592Y-000062446789*
X-000073817099Y-000062424487*
X-000073806685Y-000062400789*
X-000073805186Y-000062397792*
X-000073800792Y-000062390375*
X-000073793375Y-000062378488*
X-000073784383Y-000062365077*
X-000073772598Y-000062348795*
X-000073757688Y-000062332387*
X-000073741280Y-000062314582*
X-000073721976Y-000062299697*
X-000073719080Y-000062298199*
X-000073713086Y-000062293779*
X-000073701198Y-000062287785*
X-000073684892Y-000062280393*
X-000073665588Y-000062271478*
X-000073643286Y-000062264086*
X-000073617988Y-000062258092*
X-000073589794Y-000062253698*
X-000073583800*
X-000073579380Y-000062252199*
X-000073564496*
X-000073554082Y-000062250675*
X-000073527386*
X-000073509581Y-000062249177*
X-000073469398*
X-000073444176Y-000062247678*
X-000073020682*
Y-000063223978*
G37*
G36*
X-000077666596Y-000064249681D02*
X-000077656385Y-000064250976D01*
X-000077644980Y-000064252297*
X-000077632280Y-000064253491*
X-000077619682Y-000064256081*
X-000077589176Y-000064263676*
X-000077557579Y-000064276376*
X-000077542390Y-000064282675*
X-000077525880Y-000064291591*
X-000077510690Y-000064301674*
X-000077496695Y-000064313079*
X-000077495476Y-000064314374*
X-000077494180Y-000064315594*
X-000077490396Y-000064319378*
X-000077485290Y-000064324484*
X-000077478991Y-000064330783*
X-000077472590Y-000064339698*
X-000077466291Y-000064348588*
X-000077458697Y-000064358697*
X-000077443482Y-000064382777*
X-000077429588Y-000064411987*
X-000077418184Y-000064444880*
X-000077414297Y-000064463879*
X-000077411783Y-000064482878*
X-000077566393Y-000064501979*
Y-000064500683*
Y-000064499388*
X-000077567688Y-000064491793*
X-000077570177Y-000064481684*
X-000077573987Y-000064467689*
X-000077579093Y-000064453795*
X-000077585392Y-000064438580*
X-000077594282Y-000064423391*
X-000077605686Y-000064410691*
X-000077606982Y-000064409396*
X-000077612087Y-000064405586*
X-000077618386Y-000064400582*
X-000077628496Y-000064395477*
X-000077639976Y-000064390397*
X-000077652575Y-000064385393*
X-000077667789Y-000064381583*
X-000077684299Y-000064380287*
X-000077693189*
X-000077702079Y-000064382777*
X-000077713484Y-000064385393*
X-000077726082Y-000064389177*
X-000077740078Y-000064395477*
X-000077753997Y-000064404392*
X-000077767992Y-000064416990*
X-000077769186Y-000064418286*
X-000077772996Y-000064424585*
X-000077779397Y-000064432281*
X-000077785696Y-000064443584*
X-000077790776Y-000064458875*
X-000077797075Y-000064476579*
X-000077800885Y-000064496899*
X-000077802181Y-000064519683*
Y-000064520978*
Y-000064522197*
Y-000064529792*
X-000077800885Y-000064541298*
X-000077798396Y-000064555192*
X-000077794586Y-000064570381*
X-000077788185Y-000064585596*
X-000077780591Y-000064602080*
X-000077769186Y-000064615999*
X-000077767992Y-000064617295*
X-000077762887Y-000064621079*
X-000077756588Y-000064627379*
X-000077746377Y-000064633779*
X-000077734998Y-000064640079*
X-000077721079Y-000064646378*
X-000077705889Y-000064650289*
X-000077689379Y-000064651483*
X-000077677975*
X-000077669085Y-000064650289*
X-000077658976Y-000064648994*
X-000077646276Y-000064646378*
X-000077632280Y-000064642593*
X-000077617091Y-000064638783*
X-000077634896Y-000064768095*
X-000077644980*
X-000077657680Y-000064769390*
X-000077671599Y-000064770685*
X-000077686890Y-000064773175*
X-000077703299Y-000064778280*
X-000077719783Y-000064785875*
X-000077733677Y-000064794688*
X-000077734998Y-000064795984*
X-000077738782Y-000064799794*
X-000077745082Y-000064807388*
X-000077751482Y-000064816278*
X-000077757782Y-000064827683*
X-000077764182Y-000064841577*
X-000077767992Y-000064856791*
X-000077769186Y-000064874597*
Y-000064875892*
Y-000064882191*
X-000077767992Y-000064889786*
X-000077766697Y-000064898676*
X-000077762887Y-000064908785*
X-000077759077Y-000064920190*
X-000077752778Y-000064931594*
X-000077743888Y-000064941780*
X-000077742592Y-000064942999*
X-000077738782Y-000064945590*
X-000077733677Y-000064949374*
X-000077726082Y-000064954378*
X-000077715999Y-000064959484*
X-000077704594Y-000064963294*
X-000077690675Y-000064965884*
X-000077675384Y-000064967078*
X-000077669085*
X-000077661490Y-000064965884*
X-000077651381Y-000064963294*
X-000077639976Y-000064959484*
X-000077628496Y-000064954378*
X-000077615897Y-000064948079*
X-000077604493Y-000064937995*
X-000077603197Y-000064936674*
X-000077599387Y-000064932890*
X-000077595577Y-000064926591*
X-000077589176Y-000064917675*
X-000077582877Y-000064904975*
X-000077577899Y-000064891081*
X-000077572793Y-000064874597*
X-000077570177Y-000064855598*
X-000077423187Y-000064879677*
Y-000064880896*
X-000077424483Y-000064883487*
Y-000064887297*
X-000077425778Y-000064892275*
X-000077429588Y-000064906296*
X-000077434592Y-000064923974*
X-000077440993Y-000064942999*
X-000077448587Y-000064963294*
X-000077458697Y-000064983588*
X-000077468780Y-000065001292*
X-000077470076Y-000065003883*
X-000077475181Y-000065008887*
X-000077481480Y-000065016481*
X-000077491691Y-000065027886*
X-000077504290Y-000065039392*
X-000077518285Y-000065050797*
X-000077535989Y-000065062176*
X-000077554988Y-000065072285*
X-000077556283*
X-000077557579Y-000065073580*
X-000077565199Y-000065076095*
X-000077576578Y-000065081175*
X-000077591793Y-000065086280*
X-000077610792Y-000065090090*
X-000077631086Y-000065095094*
X-000077655191Y-000065097685*
X-000077680489Y-000065098879*
X-000077691894*
X-000077699489Y-000065097685*
X-000077709699Y-000065096390*
X-000077721079Y-000065095094*
X-000077734998Y-000065092580*
X-000077748892Y-000065090090*
X-000077778076Y-000065079880*
X-000077794586Y-000065074876*
X-000077809775Y-000065067180*
X-000077824990Y-000065058391*
X-000077841475Y-000065048180*
X-000077855394Y-000065036776*
X-000077869389Y-000065022882*
X-000077870583Y-000065021587*
X-000077871878Y-000065020291*
X-000077874393Y-000065016481*
X-000077878178Y-000065012697*
X-000077888388Y-000065000098*
X-000077899793Y-000064982293*
X-000077909877Y-000064961998*
X-000077920088Y-000064939189*
X-000077926387Y-000064912595*
X-000077928876Y-000064898676*
Y-000064884681*
Y-000064883487*
Y-000064879677*
X-000077927682Y-000064874597*
Y-000064866977*
X-000077925091Y-000064856791*
X-000077922577Y-000064846682*
X-000077918792Y-000064835278*
X-000077913687Y-000064822578*
X-000077907388Y-000064808684*
X-000077899793Y-000064794688*
X-000077889582Y-000064779499*
X-000077878178Y-000064765580*
X-000077864284Y-000064750391*
X-000077847799Y-000064736395*
X-000077830095Y-000064722476*
X-000077808480Y-000064709776*
X-000077809775*
X-000077812290Y-000064708481*
X-000077814881*
X-000077819885Y-000064707287*
X-000077833880Y-000064702182*
X-000077849095Y-000064695882*
X-000077868094Y-000064686992*
X-000077887093Y-000064674292*
X-000077904797Y-000064659078*
X-000077922577Y-000064641399*
X-000077923898Y-000064638783*
X-000077928876Y-000064632484*
X-000077936496Y-000064621079*
X-000077944091Y-000064605890*
X-000077951787Y-000064586891*
X-000077959381Y-000064564082*
X-000077964385Y-000064539977*
X-000077965681Y-000064512088*
Y-000064510793*
Y-000064506983*
Y-000064501979*
X-000077964385Y-000064494283*
X-000077963191Y-000064484199*
X-000077961896Y-000064474090*
X-000077959381Y-000064461390*
X-000077955597Y-000064447496*
X-000077945386Y-000064418286*
X-000077939087Y-000064403097*
X-000077931492Y-000064387882*
X-000077922577Y-000064371397*
X-000077911198Y-000064356183*
X-000077898498Y-000064340994*
X-000077884578Y-000064325779*
X-000077883283Y-000064324484*
X-000077880794Y-000064321994*
X-000077876984Y-000064318184*
X-000077870583Y-000064314374*
X-000077862988Y-000064307999*
X-000077852879Y-000064301674*
X-000077842694Y-000064294080*
X-000077830095Y-000064287781*
X-000077816075Y-000064280186*
X-000077800885Y-000064272591*
X-000077784375Y-000064266191*
X-000077766697Y-000064261085*
X-000077747698Y-000064256081*
X-000077728699Y-000064252297*
X-000077707083Y-000064249681*
X-000077685595Y-000064248487*
X-000077674190*
X-000077666596Y-000064249681*
G37*
G36*
X-000076728675Y-000064866977D02*
X-000076895985D01*
X-000077009980Y-000064558976*
X-000077042975Y-000064455090*
Y-000064456284*
X-000077045489Y-000064461390*
X-000077046785Y-000064467689*
X-000077049299Y-000064476579*
X-000077055599Y-000064493089*
X-000077058189Y-000064500683*
X-000077059383Y-000064506983*
Y-000064508278*
X-000077060679Y-000064510793*
X-000077061999Y-000064515898*
X-000077064489Y-000064523493*
X-000077069594Y-000064539977*
X-000077075893Y-000064558976*
X-000077191285Y-000064866977*
X-000077354785*
X-000077115187Y-000064263676*
X-000076971982*
X-000076728675Y-000064866977*
G37*
%LNpcb1-2*%
%LPC*%
G36*
X-000053706776Y-000062382882D02*
X-000053709697D01*
X-000053718688Y-000062384381*
X-000053731998Y-000062385879*
X-000053749879Y-000062390375*
X-000053769183Y-000062396293*
X-000053788487Y-000062406682*
X-000053809290Y-000062420093*
X-000053828594Y-000062437899*
X-000053830093Y-000062440896*
X-000053835985Y-000062448287*
X-000053844977Y-000062461698*
X-000053853892Y-000062479478*
X-000053862782Y-000062501780*
X-000053871698Y-000062529999*
X-000053877591Y-000062562689*
X-000053879089Y-000062599874*
Y-000062601398*
Y-000062604294*
Y-000062610288*
Y-000062617680*
X-000053877591Y-000062625097*
X-000053876092Y-000062635587*
X-000053873196Y-000062659285*
X-000053867177Y-000062684583*
X-000053858287Y-000062711279*
X-000053844977Y-000062736577*
X-000053828594Y-000062760377*
X-000053827095Y-000062763298*
X-000053819679Y-000062769292*
X-000053809290Y-000062778182*
X-000053794380Y-000062788596*
X-000053778099Y-000062798985*
X-000053757296Y-000062807875*
X-000053733496Y-000062813895*
X-000053706776Y-000062816790*
X-000053703778*
X-000053694888Y-000062815292*
X-000053681477Y-000062813895*
X-000053663697Y-000062809399*
X-000053644292Y-000062803481*
X-000053624988Y-000062792991*
X-000053604185Y-000062779681*
X-000053584881Y-000062760377*
X-000053583382Y-000062757380*
X-000053577490Y-000062749988*
X-000053570098Y-000062736577*
X-000053561081Y-000062718797*
X-000053550693Y-000062696496*
X-000053543276Y-000062668175*
X-000053537383Y-000062636984*
X-000053535884Y-000062599874*
Y-000062598376*
Y-000062595379*
Y-000062589486*
X-000053537383Y-000062582094*
Y-000062573077*
X-000053538780Y-000062564187*
X-000053541777Y-000062540489*
X-000053547797Y-000062513692*
X-000053556687Y-000062486997*
X-000053568600Y-000062461698*
X-000053584881Y-000062437899*
X-000053587878Y-000062434978*
X-000053593796Y-000062428983*
X-000053604185Y-000062420093*
X-000053619095Y-000062411178*
X-000053636875Y-000062400789*
X-000053657677Y-000062391899*
X-000053679979Y-000062385879*
X-000053706776Y-000062382882*
G37*
G36*
X-000054992092D02*
X-000054994987D01*
X-000055003877Y-000062384381*
X-000055017289Y-000062385879*
X-000055035196Y-000062390375*
X-000055054500Y-000062396293*
X-000055073778Y-000062406682*
X-000055094581Y-000062420093*
X-000055113885Y-000062437899*
X-000055115383Y-000062440896*
X-000055121276Y-000062448287*
X-000055130192Y-000062461698*
X-000055139183Y-000062479478*
X-000055148099Y-000062501780*
X-000055156989Y-000062529999*
X-000055162881Y-000062562689*
X-000055164380Y-000062599874*
Y-000062601398*
Y-000062604294*
Y-000062610288*
Y-000062617680*
X-000055162881Y-000062625097*
X-000055161484Y-000062635587*
X-000055158487Y-000062659285*
X-000055152493Y-000062684583*
X-000055143577Y-000062711279*
X-000055130192Y-000062736577*
X-000055113885Y-000062760377*
X-000055112386Y-000062763298*
X-000055104995Y-000062769292*
X-000055094581Y-000062778182*
X-000055079696Y-000062788596*
X-000055063390Y-000062798985*
X-000055042587Y-000062807875*
X-000055018787Y-000062813895*
X-000054992092Y-000062816790*
X-000054989095*
X-000054980179Y-000062815292*
X-000054966793Y-000062813895*
X-000054948988Y-000062809399*
X-000054929684Y-000062803481*
X-000054910278Y-000062792991*
X-000054889476Y-000062779681*
X-000054870197Y-000062760377*
X-000054868699Y-000062757380*
X-000054862780Y-000062749988*
X-000054855389Y-000062736577*
X-000054846499Y-000062718797*
X-000054835983Y-000062696496*
X-000054828592Y-000062668175*
X-000054822699Y-000062636984*
X-000054821175Y-000062599874*
Y-000062598376*
Y-000062595379*
Y-000062589486*
X-000054822699Y-000062582094*
Y-000062573077*
X-000054824198Y-000062564187*
X-000054827093Y-000062540489*
X-000054833088Y-000062513692*
X-000054841978Y-000062486997*
X-000054853890Y-000062461698*
X-000054870197Y-000062437899*
X-000054873194Y-000062434978*
X-000054879087Y-000062428983*
X-000054889476Y-000062420093*
X-000054904386Y-000062411178*
X-000054922191Y-000062400789*
X-000054942994Y-000062391899*
X-000054965295Y-000062385879*
X-000054992092Y-000062382882*
G37*
G36*
X-000049574475Y-000062781180D02*
X-000049709679D01*
X-000049720093Y-000062782577*
X-000049743893*
X-000049770588Y-000062784075*
X-000049795887Y-000062787098*
X-000049818188Y-000062791594*
X-000049828577Y-000062792991*
X-000049835993Y-000062795988*
X-000049837492Y-000062797486*
X-000049841886Y-000062798985*
X-000049849379Y-000062801982*
X-000049858295Y-000062807875*
X-000049868683Y-000062813895*
X-000049879097Y-000062822785*
X-000049889486Y-000062831675*
X-000049898376Y-000062843587*
X-000049899874Y-000062845086*
X-000049901398Y-000062849480*
X-000049905793Y-000062856897*
X-000049910288Y-000062865889*
X-000049913286Y-000062876277*
X-000049917680Y-000062889587*
X-000049919178Y-000062904497*
X-000049920677Y-000062919279*
Y-000062922277*
Y-000062928296*
X-000049919178Y-000062938685*
X-000049916181Y-000062950598*
X-000049913286Y-000062963882*
X-000049907291Y-000062978792*
X-000049899874Y-000062993574*
X-000049889486Y-000063006986*
X-000049887987Y-000063008484*
X-000049883491Y-000063012980*
X-000049877599Y-000063018898*
X-000049867185Y-000063026290*
X-000049856796Y-000063033783*
X-000049841886Y-000063041199*
X-000049827078Y-000063047092*
X-000049809196Y-000063051588*
X-000049807799*
X-000049801780Y-000063053087*
X-000049792890Y-000063054585*
X-000049779478Y-000063056084*
X-000049760174*
X-000049734978Y-000063057481*
X-000049721592Y-000063058979*
X-000049574475*
Y-000062781180*
G37*
G36*
X-000051467486Y-000062412676D02*
X-000051684377D01*
X-000051705179Y-000062414175*
X-000051728979*
X-000051751280Y-000062415597*
X-000051770584Y-000062417096*
X-000051778077*
X-000051783996Y-000062418595*
X-000051785494*
X-000051791387Y-000062420093*
X-000051798880Y-000062423090*
X-000051809294Y-000062425986*
X-000051819683Y-000062431980*
X-000051832992Y-000062437899*
X-000051844879Y-000062446789*
X-000051855293Y-000062457177*
X-000051856792Y-000062458676*
X-000051859789Y-000062463197*
X-000051864183Y-000062470588*
X-000051870178Y-000062479478*
X-000051874597Y-000062491391*
X-000051879093Y-000062506275*
X-000051882090Y-000062522582*
X-000051883589Y-000062540489*
Y-000062541886*
Y-000062547881*
X-000051882090Y-000062555297*
X-000051880592Y-000062565686*
X-000051877595Y-000062577599*
X-000051874597Y-000062589486*
X-000051868679Y-000062602897*
X-000051861288Y-000062614683*
X-000051859789Y-000062616181*
X-000051856792Y-000062619178*
X-000051852398Y-000062625097*
X-000051846378Y-000062632590*
X-000051837488Y-000062639981*
X-000051827099Y-000062647398*
X-000051815187Y-000062653392*
X-000051800379Y-000062659285*
X-000051798880*
X-000051791387Y-000062662282*
X-000051780998Y-000062663781*
X-000051772083Y-000062665279*
X-000051763193Y-000062666778*
X-000051752779Y-000062668175*
X-000051739393Y-000062669699*
X-000051726084Y-000062671198*
X-000051709675*
X-000051691895Y-000062672696*
X-000051671093Y-000062674195*
X-000051467486*
Y-000062412676*
G37*
G36*
Y-000062836094D02*
X-000051656183D01*
X-000051681481Y-000062837593*
X-000051724585*
X-000051733475Y-000062839092*
X-000051742390*
X-000051748283Y-000062840590*
X-000051757275Y-000062842089*
X-000051767689Y-000062845086*
X-000051780998Y-000062849480*
X-000051794384Y-000062855475*
X-000051806297Y-000062864390*
X-000051818184Y-000062873280*
X-000051819683Y-000062874779*
X-000051822578Y-000062879198*
X-000051827099Y-000062885193*
X-000051832992Y-000062894083*
X-000051838987Y-000062905995*
X-000051843381Y-000062917882*
X-000051846378Y-000062934189*
X-000051847877Y-000062950598*
Y-000062951995*
Y-000062957989*
X-000051846378Y-000062966879*
X-000051844879Y-000062975794*
X-000051841984Y-000062987682*
X-000051837488Y-000062999594*
X-000051831595Y-000063011481*
X-000051822578Y-000063023394*
X-000051821181Y-000063024791*
X-000051818184Y-000063027788*
X-000051812190Y-000063032284*
X-000051803300Y-000063038177*
X-000051792886Y-000063044197*
X-000051780998Y-000063050089*
X-000051766190Y-000063054585*
X-000051748283Y-000063057481*
X-000051746886*
X-000051740892Y-000063058979*
X-000051724585*
X-000051715593Y-000063060478*
X-000051679983*
X-000051665098Y-000063061977*
X-000051467486*
Y-000062836094*
G37*
G36*
X-000075457583Y-000062382882D02*
X-000075460479D01*
X-000075469496Y-000062384381*
X-000075482780Y-000062385879*
X-000075500585Y-000062390375*
X-000075519991Y-000062396293*
X-000075539295Y-000062406682*
X-000075560097Y-000062420093*
X-000075579376Y-000062437899*
X-000075580875Y-000062440896*
X-000075586793Y-000062448287*
X-000075595683Y-000062461698*
X-000075604674Y-000062479478*
X-000075613590Y-000062501780*
X-000075622480Y-000062529999*
X-000075628398Y-000062562689*
X-000075629897Y-000062599874*
Y-000062601398*
Y-000062604294*
Y-000062610288*
Y-000062617680*
X-000075628398Y-000062625097*
X-000075626976Y-000062635587*
X-000075623978Y-000062659285*
X-000075617984Y-000062684583*
X-000075609094Y-000062711279*
X-000075595683Y-000062736577*
X-000075579376Y-000062760377*
X-000075577877Y-000062763298*
X-000075570486Y-000062769292*
X-000075560097Y-000062778182*
X-000075545188Y-000062788596*
X-000075528881Y-000062798985*
X-000075508078Y-000062807875*
X-000075484278Y-000062813895*
X-000075457583Y-000062816790*
X-000075454586*
X-000075445696Y-000062815292*
X-000075432285Y-000062813895*
X-000075414479Y-000062809399*
X-000075395099Y-000062803481*
X-000075375795Y-000062792991*
X-000075354992Y-000062779681*
X-000075335688Y-000062760377*
X-000075334190Y-000062757380*
X-000075328297Y-000062749988*
X-000075320880Y-000062736577*
X-000075311889Y-000062718797*
X-000075301475Y-000062696496*
X-000075294083Y-000062668175*
X-000075288190Y-000062636984*
X-000075286692Y-000062599874*
Y-000062598376*
Y-000062595379*
Y-000062589486*
X-000075288190Y-000062582094*
Y-000062573077*
X-000075289587Y-000062564187*
X-000075292585Y-000062540489*
X-000075298579Y-000062513692*
X-000075307494Y-000062486997*
X-000075319382Y-000062461698*
X-000075335688Y-000062437899*
X-000075338686Y-000062434978*
X-000075344578Y-000062428983*
X-000075354992Y-000062420093*
X-000075369877Y-000062411178*
X-000075387682Y-000062400789*
X-000075408485Y-000062391899*
X-000075430786Y-000062385879*
X-000075457583Y-000062382882*
G37*
G36*
X-000076742899D02*
X-000076745795D01*
X-000076754786Y-000062384381*
X-000076768096Y-000062385879*
X-000076785978Y-000062390375*
X-000076805282Y-000062396293*
X-000076824586Y-000062406682*
X-000076845388Y-000062420093*
X-000076864692Y-000062437899*
X-000076866191Y-000062440896*
X-000076872084Y-000062448287*
X-000076881075Y-000062461698*
X-000076889991Y-000062479478*
X-000076898881Y-000062501780*
X-000076907796Y-000062529999*
X-000076913689Y-000062562689*
X-000076915187Y-000062599874*
Y-000062601398*
Y-000062604294*
Y-000062610288*
Y-000062617680*
X-000076913689Y-000062625097*
X-000076912292Y-000062635587*
X-000076909295Y-000062659285*
X-000076903275Y-000062684583*
X-000076894385Y-000062711279*
X-000076881075Y-000062736577*
X-000076864692Y-000062760377*
X-000076863194Y-000062763298*
X-000076855777Y-000062769292*
X-000076845388Y-000062778182*
X-000076830478Y-000062788596*
X-000076814197Y-000062798985*
X-000076793394Y-000062807875*
X-000076769595Y-000062813895*
X-000076742899Y-000062816790*
X-000076739877*
X-000076730987Y-000062815292*
X-000076717575Y-000062813895*
X-000076699795Y-000062809399*
X-000076680491Y-000062803481*
X-000076661086Y-000062792991*
X-000076640283Y-000062779681*
X-000076620979Y-000062760377*
X-000076619481Y-000062757380*
X-000076613588Y-000062749988*
X-000076606196Y-000062736577*
X-000076597281Y-000062718797*
X-000076586791Y-000062696496*
X-000076579399Y-000062668175*
X-000076573481Y-000062636984*
X-000076571983Y-000062599874*
Y-000062598376*
Y-000062595379*
Y-000062589486*
X-000076573481Y-000062582094*
Y-000062573077*
X-000076574980Y-000062564187*
X-000076577875Y-000062540489*
X-000076583895Y-000062513692*
X-000076592785Y-000062486997*
X-000076604698Y-000062461698*
X-000076620979Y-000062437899*
X-000076623976Y-000062434978*
X-000076629895Y-000062428983*
X-000076640283Y-000062420093*
X-000076655193Y-000062411178*
X-000076672998Y-000062400789*
X-000076693776Y-000062391899*
X-000076716077Y-000062385879*
X-000076742899Y-000062382882*
G37*
G36*
X-000071325282Y-000062781180D02*
X-000071460487D01*
X-000071470875Y-000062782577*
X-000071494675*
X-000071521396Y-000062784075*
X-000071546694Y-000062787098*
X-000071568995Y-000062791594*
X-000071579384Y-000062792991*
X-000071586775Y-000062795988*
X-000071588299Y-000062797486*
X-000071592694Y-000062798985*
X-000071600187Y-000062801982*
X-000071609077Y-000062807875*
X-000071619491Y-000062813895*
X-000071629879Y-000062822785*
X-000071640293Y-000062831675*
X-000071649183Y-000062843587*
X-000071650682Y-000062845086*
X-000071652180Y-000062849480*
X-000071656575Y-000062856897*
X-000071661096Y-000062865889*
X-000071664093Y-000062876277*
X-000071668487Y-000062889587*
X-000071669986Y-000062904497*
X-000071671484Y-000062919279*
Y-000062922277*
Y-000062928296*
X-000071669986Y-000062938685*
X-000071666989Y-000062950598*
X-000071664093Y-000062963882*
X-000071658099Y-000062978792*
X-000071650682Y-000062993574*
X-000071640293Y-000063006986*
X-000071638795Y-000063008484*
X-000071634299Y-000063012980*
X-000071628381Y-000063018898*
X-000071617992Y-000063026290*
X-000071607578Y-000063033783*
X-000071592694Y-000063041199*
X-000071577885Y-000063047092*
X-000071559978Y-000063051588*
X-000071558581*
X-000071552587Y-000063053087*
X-000071543697Y-000063054585*
X-000071530286Y-000063056084*
X-000071510982*
X-000071485683Y-000063057481*
X-000071472399Y-000063058979*
X-000071325282*
Y-000062781180*
G37*
G36*
X-000073218294Y-000062412676D02*
X-000073435184D01*
X-000073455987Y-000062414175*
X-000073479787*
X-000073502088Y-000062415597*
X-000073521392Y-000062417096*
X-000073528885*
X-000073534778Y-000062418595*
X-000073536276*
X-000073542194Y-000062420093*
X-000073549687Y-000062423090*
X-000073560076Y-000062425986*
X-000073570490Y-000062431980*
X-000073583800Y-000062437899*
X-000073595687Y-000062446789*
X-000073606075Y-000062457177*
X-000073607599Y-000062458676*
X-000073610597Y-000062463197*
X-000073614991Y-000062470588*
X-000073620985Y-000062479478*
X-000073625481Y-000062491391*
X-000073629875Y-000062506275*
X-000073632898Y-000062522582*
X-000073634396Y-000062540489*
Y-000062541886*
Y-000062547881*
X-000073632898Y-000062555297*
X-000073631399Y-000062565686*
X-000073628377Y-000062577599*
X-000073625481Y-000062589486*
X-000073619487Y-000062602897*
X-000073612095Y-000062614683*
X-000073610597Y-000062616181*
X-000073607599Y-000062619178*
X-000073603180Y-000062625097*
X-000073597185Y-000062632590*
X-000073588295Y-000062639981*
X-000073577881Y-000062647398*
X-000073565994Y-000062653392*
X-000073551084Y-000062659285*
X-000073549687*
X-000073542194Y-000062662282*
X-000073531780Y-000062663781*
X-000073522890Y-000062665279*
X-000073513975Y-000062666778*
X-000073503586Y-000062668175*
X-000073490175Y-000062669699*
X-000073476891Y-000062671198*
X-000073460483*
X-000073442677Y-000062672696*
X-000073421875Y-000062674195*
X-000073218294*
Y-000062412676*
G37*
G36*
Y-000062836094D02*
X-000073406990D01*
X-000073432289Y-000062837593*
X-000073475392*
X-000073484282Y-000062839092*
X-000073493198*
X-000073499091Y-000062840590*
X-000073508082Y-000062842089*
X-000073518496Y-000062845086*
X-000073531780Y-000062849480*
X-000073545192Y-000062855475*
X-000073557079Y-000062864390*
X-000073568991Y-000062873280*
X-000073570490Y-000062874779*
X-000073573386Y-000062879198*
X-000073577881Y-000062885193*
X-000073583800Y-000062894083*
X-000073589794Y-000062905995*
X-000073594188Y-000062917882*
X-000073597185Y-000062934189*
X-000073598684Y-000062950598*
Y-000062951995*
Y-000062957989*
X-000073597185Y-000062966879*
X-000073595687Y-000062975794*
X-000073592791Y-000062987682*
X-000073588295Y-000062999594*
X-000073582377Y-000063011481*
X-000073573386Y-000063023394*
X-000073571989Y-000063024791*
X-000073568991Y-000063027788*
X-000073562997Y-000063032284*
X-000073554082Y-000063038177*
X-000073543693Y-000063044197*
X-000073531780Y-000063050089*
X-000073516998Y-000063054585*
X-000073499091Y-000063057481*
X-000073497694*
X-000073491699Y-000063058979*
X-000073475392*
X-000073466477Y-000063060478*
X-000073430790*
X-000073415880Y-000063061977*
X-000073218294*
Y-000062836094*
G37*
%LNpcb1-3*%
%LPD*%
G54D10*
X-000052591284Y-000068259883D02*
D01*
D01*
G75*
G03X-000052613483Y-000068259985I-21383J2282905D01*
G74*G01*
X-000048670895Y-000064646098D02*
D01*
D01*
G75*
G03X-000050605283I-967200J0D01*
G74*G01*
D01*
G75*
G03X-000048670895I967200J0D01*
G74*G01*
X-000054652392Y-000064623594D02*
D01*
D01*
G75*
G03X-000056586780I-967200J0D01*
G74*G01*
D01*
G75*
G03X-000054652392I967200J0D01*
G74*G01*
X-000076403200D02*
D01*
D01*
G75*
G03X-000078337587I-967200J0D01*
G74*G01*
D01*
G75*
G03X-000076403200I967200J0D01*
G74*G01*
X-000070421677Y-000064646098D02*
D01*
D01*
G75*
G03X-000072356091I-967200J0D01*
G74*G01*
D01*
G75*
G03X-000070421677I967200J0D01*
G74*G01*
X-000074342091Y-000068259883D02*
D01*
D01*
G75*
G03X-000074364291Y-000068259985I-21383J2282905D01*
G74*G01*
G54D11*
X-000050107494Y-000064371880D02*
X-000049907494Y-000064718285D01*
X-000049565890Y-000065059890D02*
X-000049165891Y-000064367079D01*
X-000049638077Y-000065184883D02*
X-000049368684Y-000064718285D01*
X-000049907494D02*
X-000049638077Y-000065184883D01*
X-000050104675Y-000064376681D02*
X-000049565890D01*
X-000049710289D02*
X-000049171479D01*
X-000071388884Y-000065184883D02*
Y-000064646098D01*
X-000070922286Y-000064376681*
X-000071855482D02*
X-000071388884Y-000064646098D01*
G54D12*
X-000052843684Y-000067640200D02*
X-000052381378D01*
X-000052852497Y-000067631284D02*
X-000052372488D01*
X-000052861387Y-000067622394D02*
X-000052363598D01*
X-000052861387Y-000067613479D02*
X-000052363598D01*
X-000052861387Y-000067604690D02*
X-000052363598D01*
X-000052861387Y-000067595775D02*
X-000052363598D01*
X-000052861387Y-000067586885D02*
X-000052354683D01*
X-000052870277Y-000067577995D02*
X-000052354683D01*
X-000052870277Y-000067569080D02*
X-000052354683D01*
X-000052870277Y-000067560190D02*
X-000052354683D01*
X-000052870277Y-000067551300D02*
X-000052354683D01*
X-000052870277Y-000067542384D02*
X-000052354683D01*
X-000052870277Y-000067533494D02*
X-000052345793D01*
X-000052879193Y-000067524680D02*
X-000052345793D01*
X-000052879193Y-000067515790D02*
X-000052345793D01*
X-000052879193Y-000067506875D02*
X-000052345793D01*
X-000052879193Y-000067497985D02*
X-000052345793D01*
X-000052879193Y-000067489095D02*
X-000052336877D01*
X-000052879193Y-000067480180D02*
X-000052336877D01*
X-000052888083Y-000067471290D02*
X-000052336877D01*
X-000052888083Y-000067462400D02*
X-000052336877D01*
X-000052888083Y-000067453484D02*
X-000052336877D01*
X-000052888083Y-000067444594D02*
X-000052327987D01*
X-000052888083Y-000067435780D02*
X-000052327987D01*
X-000052888083Y-000067426890D02*
X-000052327987D01*
X-000052896998Y-000067417975D02*
X-000052327987D01*
X-000052905888Y-000067409085D02*
X-000052327987D01*
X-000052905888Y-000067400195D02*
X-000052327987D01*
X-000052905888Y-000067391280D02*
X-000052327987D01*
X-000052905888Y-000067382390D02*
X-000052319097D01*
X-000052905888Y-000067373500D02*
X-000052319097D01*
X-000052905888Y-000067364584D02*
X-000052319097D01*
X-000052905888Y-000067355694D02*
X-000052319097D01*
X-000052914778Y-000067346779D02*
X-000052319097D01*
X-000052914778Y-000067337990D02*
X-000052319097D01*
X-000052914778Y-000067329075D02*
X-000052310182D01*
X-000052914778Y-000067320185D02*
X-000052310182D01*
X-000051598982Y-000067311295D02*
X-000051590194D01*
X-000052914778D02*
X-000052310182D01*
X-000051625677Y-000067302380D02*
X-000051572388D01*
X-000052914778D02*
X-000052310182D01*
X-000053661487D02*
X-000053599283D01*
X-000051634593Y-000067293490D02*
X-000051563498D01*
X-000052923694D02*
X-000052310182D01*
X-000053670377D02*
X-000053590393D01*
X-000051652398Y-000067284600D02*
X-000051554583D01*
X-000052923694D02*
X-000052310182D01*
X-000053679293D02*
X-000053572587D01*
X-000051661288Y-000067275684D02*
X-000051545693D01*
X-000052923694D02*
X-000052301394D01*
X-000053688183D02*
X-000053563697D01*
X-000051679094Y-000067266794D02*
X-000051536777D01*
X-000052923694D02*
X-000052292478D01*
X-000053697098D02*
X-000053545994D01*
X-000051687984Y-000067257879D02*
X-000051527887D01*
X-000052923694D02*
X-000052292478D01*
X-000053705988D02*
X-000053537078D01*
X-000051705687Y-000067249090D02*
X-000051518997D01*
X-000052932482D02*
X-000052292478D01*
X-000053714878D02*
X-000053519298D01*
X-000051714577Y-000067240175D02*
X-000051510184D01*
X-000052932482D02*
X-000052292478D01*
X-000053723794D02*
X-000053510383D01*
X-000051723493Y-000067231285D02*
X-000051501294D01*
X-000052932482D02*
X-000052292478D01*
X-000053732684D02*
X-000053501493D01*
X-000051732383Y-000067222395D02*
X-000051492378D01*
X-000052932482D02*
X-000052292478D01*
X-000053741497D02*
X-000053492577D01*
X-000051750188Y-000067213480D02*
X-000051483488D01*
X-000052932482D02*
X-000052292478D01*
X-000053741497D02*
X-000053474797D01*
X-000051767994Y-000067204590D02*
X-000051474598D01*
X-000052941397D02*
X-000052283588D01*
X-000053759277D02*
X-000053465984D01*
X-000051776884Y-000067195700D02*
X-000051465683D01*
X-000052941397D02*
X-000052283588D01*
X-000053768193D02*
X-000053448178D01*
X-000051794587Y-000067186784D02*
X-000051456793D01*
X-000052941397D02*
X-000052283588D01*
X-000053777083D02*
X-000053430398D01*
X-000051812393Y-000067177894D02*
X-000051447877D01*
X-000052968093D02*
X-000052256893D01*
X-000053785998D02*
X-000053412593D01*
X-000051821283Y-000067169080D02*
X-000051438987D01*
X-000052985898D02*
X-000052247977D01*
X-000053794888D02*
X-000053403677D01*
X-000051830198Y-000067160190D02*
X-000051430097D01*
X-000053003678D02*
X-000052221384D01*
X-000053803778D02*
X-000053394787D01*
X-000051847978Y-000067151275D02*
X-000051421182D01*
X-000053030297D02*
X-000052203578D01*
X-000053812694D02*
X-000053385897D01*
X-000051856894Y-000067142385D02*
X-000051412394D01*
X-000053039187D02*
X-000052185798D01*
X-000053812694D02*
X-000053368194D01*
X-000051865682Y-000067133495D02*
X-000051403478D01*
X-000053056993D02*
X-000052167993D01*
X-000053821482D02*
X-000053359278D01*
X-000051883487Y-000067124580D02*
X-000051394588D01*
X-000053083688D02*
X-000052141297D01*
X-000053839287D02*
X-000053341498D01*
X-000051892377Y-000067115690D02*
X-000051385698D01*
X-000053110384D02*
X-000052114678D01*
X-000053848177D02*
X-000053332583D01*
X-000051910183Y-000067106799D02*
X-000051376783D01*
X-000053136977D02*
X-000052087983D01*
X-000053857093D02*
X-000053314777D01*
X-000051927988Y-000067097884D02*
X-000051367893D01*
X-000053163698D02*
X-000052061287D01*
X-000053865983D02*
X-000053305887D01*
X-000051927988Y-000067088994D02*
X-000051358977D01*
X-000053172588D02*
X-000052052397D01*
X-000053874898D02*
X-000053296997D01*
X-000051945794Y-000067080079D02*
X-000051350087D01*
X-000053190394D02*
X-000052034694D01*
X-000053883788D02*
X-000053279294D01*
X-000051963497Y-000067071290D02*
X-000051341197D01*
X-000053216987D02*
X-000052007998D01*
X-000053892678D02*
X-000053270378D01*
X-000053901594Y-000067062375D02*
X-000051332384D01*
X-000053910382Y-000067053485D02*
X-000051323494D01*
X-000053919297Y-000067044595D02*
X-000051314578D01*
X-000053928187Y-000067035679D02*
X-000051305688D01*
X-000053937077Y-000067026789D02*
X-000051296798D01*
X-000053945993Y-000067017899D02*
X-000051287883D01*
X-000053954883Y-000067008984D02*
X-000051278993D01*
X-000053963798Y-000067000094D02*
X-000051270077D01*
X-000053963798Y-000066991179D02*
X-000051261187D01*
X-000053963798Y-000066982390D02*
X-000051261187D01*
X-000053963798Y-000066973475D02*
X-000051261187D01*
X-000053963798Y-000066964585D02*
X-000051261187D01*
X-000053954883Y-000066955695D02*
X-000051270077D01*
X-000053954883Y-000066946779D02*
X-000051278993D01*
X-000053945993Y-000066937889D02*
X-000051287883D01*
X-000053945993Y-000066928999D02*
X-000051296798D01*
X-000053937077Y-000066920084D02*
X-000051296798D01*
X-000053928187Y-000066911194D02*
X-000051305688D01*
X-000053919297Y-000066902380D02*
X-000051305688D01*
X-000053919297Y-000066893490D02*
X-000051314578D01*
X-000053910382Y-000066884575D02*
X-000051314578D01*
X-000053901594Y-000066875685D02*
X-000051323494D01*
X-000053892678Y-000066866795D02*
X-000051332384D01*
X-000053892678Y-000066857879D02*
X-000051332384D01*
X-000053883788Y-000066848989D02*
X-000051341197D01*
X-000053874898Y-000066840099D02*
X-000051350087D01*
X-000053874898Y-000066831184D02*
X-000051358977D01*
X-000053865983Y-000066822294D02*
X-000051367893D01*
X-000053865983Y-000066813480D02*
X-000051367893D01*
X-000053848177Y-000066804590D02*
X-000051376783D01*
X-000053839287Y-000066795675D02*
X-000051385698D01*
X-000053839287Y-000066786785D02*
X-000051385698D01*
X-000053830397Y-000066777895D02*
X-000051394588D01*
X-000053830397Y-000066768979D02*
X-000051394588D01*
X-000053821482Y-000066760089D02*
X-000051403478D01*
X-000053812694Y-000066751199D02*
X-000051412394D01*
X-000053812694Y-000066742284D02*
X-000051421182D01*
X-000053803778Y-000066733394D02*
X-000051421182D01*
X-000053794888Y-000066724479D02*
X-000051430097D01*
X-000053794888Y-000066715690D02*
X-000051438987D01*
X-000053785998Y-000066706775D02*
X-000051438987D01*
X-000053777083Y-000066697885D02*
X-000051447877D01*
X-000053768193Y-000066688995D02*
X-000051447877D01*
X-000053768193Y-000066680079D02*
X-000051456793D01*
X-000053759277Y-000066671189D02*
X-000051465683D01*
X-000053750387Y-000066662299D02*
X-000051465683D01*
X-000053750387Y-000066653384D02*
X-000051474598D01*
X-000053741497Y-000066644494D02*
X-000051483488D01*
X-000053741497Y-000066635680D02*
X-000051492378D01*
X-000053732684Y-000066626790D02*
X-000051501294D01*
X-000053723794Y-000066617875D02*
X-000051501294D01*
X-000053723794Y-000066608985D02*
X-000051510184D01*
X-000053723794Y-000066600095D02*
X-000051510184D01*
X-000053723794Y-000066591179D02*
X-000051510184D01*
X-000053723794Y-000066582290D02*
X-000051510184D01*
X-000053732684Y-000066573400D02*
X-000051501294D01*
X-000053732684Y-000066564484D02*
X-000051501294D01*
X-000053732684Y-000066555594D02*
X-000051492378D01*
X-000053741497Y-000066546780D02*
X-000051483488D01*
X-000053741497Y-000066537890D02*
X-000051483488D01*
X-000053741497Y-000066528975D02*
X-000051474598D01*
X-000053750387Y-000066520085D02*
X-000051474598D01*
X-000053750387Y-000066511195D02*
X-000051465683D01*
X-000053759277Y-000066502280D02*
X-000051465683D01*
X-000053759277Y-000066493390D02*
X-000051465683D01*
X-000053759277Y-000066484500D02*
X-000051456793D01*
X-000053768193Y-000066475584D02*
X-000051456793D01*
X-000053768193Y-000066466694D02*
X-000051456793D01*
X-000053777083Y-000066457779D02*
X-000051447877D01*
X-000053785998Y-000066448990D02*
X-000051447877D01*
X-000053785998Y-000066440075D02*
X-000051438987D01*
X-000053785998Y-000066431185D02*
X-000051438987D01*
X-000053794888Y-000066422295D02*
X-000051438987D01*
X-000053794888Y-000066413380D02*
X-000051430097D01*
X-000052532483Y-000066404490D02*
X-000051430097D01*
X-000053803778D02*
X-000052692477D01*
X-000052487982Y-000066395600D02*
X-000051421182D01*
X-000053803778D02*
X-000052736978D01*
X-000052452498Y-000066386684D02*
X-000051421182D01*
X-000053803778D02*
X-000052772487D01*
X-000052434693Y-000066377794D02*
X-000051412394D01*
X-000053812694D02*
X-000052799183D01*
X-000052416887Y-000066368879D02*
X-000051412394D01*
X-000053812694D02*
X-000052816988D01*
X-000052399184Y-000066360090D02*
X-000051403478D01*
X-000053821482D02*
X-000052834794D01*
X-000052390294Y-000066351175D02*
X-000051403478D01*
X-000053821482D02*
X-000052834794D01*
X-000052372488Y-000066342285D02*
X-000051403478D01*
X-000053830397D02*
X-000052852497D01*
X-000052354683Y-000066333395D02*
X-000051394588D01*
X-000053830397D02*
X-000052870277D01*
X-000052345793Y-000066324480D02*
X-000051394588D01*
X-000053830397D02*
X-000052879193D01*
X-000052336877Y-000066315590D02*
X-000051385698D01*
X-000053839287D02*
X-000052896998D01*
X-000052319097Y-000066306700D02*
X-000051385698D01*
X-000053839287D02*
X-000052905888D01*
X-000052310182Y-000066297784D02*
X-000051385698D01*
X-000053848177D02*
X-000052914778D01*
X-000052301394Y-000066288894D02*
X-000051367893D01*
X-000053857093D02*
X-000052923694D01*
X-000052292478Y-000066280080D02*
X-000051332384D01*
X-000053901594D02*
X-000052932482D01*
X-000052283588Y-000066271190D02*
X-000051296798D01*
X-000053937077D02*
X-000052941397D01*
X-000052274698Y-000066262275D02*
X-000051270077D01*
X-000053963798D02*
X-000052950287D01*
X-000052265783Y-000066253385D02*
X-000051207898D01*
X-000054017087D02*
X-000052959177D01*
X-000052256893Y-000066244495D02*
X-000051154482D01*
X-000054070478D02*
X-000052968093D01*
X-000052256893Y-000066235580D02*
X-000051101193D01*
X-000054123793D02*
X-000052976983D01*
X-000052247977Y-000066226690D02*
X-000051038988D01*
X-000054185997D02*
X-000052976983D01*
X-000052239087Y-000066217800D02*
X-000050976682D01*
X-000054248278D02*
X-000052985898D01*
X-000052239087Y-000066208884D02*
X-000050958978D01*
X-000054265982D02*
X-000052994788D01*
X-000052230197Y-000066199994D02*
X-000050941198D01*
X-000054283787D02*
X-000052994788D01*
X-000052221384Y-000066191079D02*
X-000050932283D01*
X-000054292677D02*
X-000053003678D01*
X-000052212494Y-000066182290D02*
X-000050923393D01*
X-000054301593D02*
X-000053012594D01*
X-000052212494Y-000066173375D02*
X-000050923393D01*
X-000054301593D02*
X-000053012594D01*
X-000052212494Y-000066164485D02*
X-000050923393D01*
X-000054301593D02*
X-000053021484D01*
X-000052203578Y-000066155595D02*
X-000050923393D01*
X-000054301593D02*
X-000053021484D01*
X-000052203578Y-000066146680D02*
X-000050923393D01*
X-000054301593D02*
X-000053021484D01*
X-000052194688Y-000066137790D02*
X-000050923393D01*
X-000054301593D02*
X-000053030297D01*
X-000052194688Y-000066128900D02*
X-000050923393D01*
X-000054301593D02*
X-000053030297D01*
X-000052194688Y-000066119984D02*
X-000050923393D01*
X-000054301593D02*
X-000053039187D01*
X-000052185798Y-000066111094D02*
X-000050923393D01*
X-000054301593D02*
X-000053048077D01*
X-000052185798Y-000066102179D02*
X-000050923393D01*
X-000054301593D02*
X-000053048077D01*
X-000052185798Y-000066093390D02*
X-000050923393D01*
X-000054301593D02*
X-000053048077D01*
X-000052176883Y-000066084475D02*
X-000050923393D01*
X-000054301593D02*
X-000053048077D01*
X-000052176883Y-000066075585D02*
X-000050923393D01*
X-000054301593D02*
X-000053056993D01*
X-000052176883Y-000066066695D02*
X-000050923393D01*
X-000054301593D02*
X-000053056993D01*
X-000052176883Y-000066057780D02*
X-000050923393D01*
X-000054301593D02*
X-000053056993D01*
X-000052167993Y-000066048890D02*
X-000050923393D01*
X-000054301593D02*
X-000053056993D01*
X-000052167993Y-000066040000D02*
X-000050923393D01*
X-000054301593D02*
X-000053056993D01*
X-000052167993Y-000066031084D02*
X-000050923393D01*
X-000054301593D02*
X-000053065883D01*
X-000052167993Y-000066022194D02*
X-000050923393D01*
X-000054301593D02*
X-000053065883D01*
X-000052167993Y-000066013380D02*
X-000050923393D01*
X-000054301593D02*
X-000053065883D01*
X-000052167993Y-000066004490D02*
X-000050923393D01*
X-000054301593D02*
X-000053065883D01*
X-000052167993Y-000065995575D02*
X-000050923393D01*
X-000054301593D02*
X-000053065883D01*
X-000052167993Y-000065986685D02*
X-000050923393D01*
X-000054301593D02*
X-000053065883D01*
X-000052167993Y-000065977795D02*
X-000050923393D01*
X-000054301593D02*
X-000053065883D01*
X-000052159077Y-000065968880D02*
X-000050923393D01*
X-000054301593D02*
X-000053065883D01*
X-000052159077Y-000065959990D02*
X-000050923393D01*
X-000054301593D02*
X-000053065883D01*
X-000052159077Y-000065951100D02*
X-000050923393D01*
X-000054301593D02*
X-000053065883D01*
X-000052167993Y-000065942184D02*
X-000050923393D01*
X-000054301593D02*
X-000053065883D01*
X-000052167993Y-000065933294D02*
X-000050923393D01*
X-000054301593D02*
X-000053065883D01*
X-000052167993Y-000065924480D02*
X-000050923393D01*
X-000054301593D02*
X-000053065883D01*
X-000052167993Y-000065915590D02*
X-000050923393D01*
X-000054301593D02*
X-000053065883D01*
X-000052167993Y-000065906675D02*
X-000050923393D01*
X-000054301593D02*
X-000053065883D01*
X-000052167993Y-000065897785D02*
X-000050923393D01*
X-000054301593D02*
X-000053065883D01*
X-000052167993Y-000065888895D02*
X-000050923393D01*
X-000054301593D02*
X-000053065883D01*
X-000052167993Y-000065879980D02*
X-000050923393D01*
X-000054301593D02*
X-000053056993D01*
X-000052167993Y-000065871090D02*
X-000050923393D01*
X-000054301593D02*
X-000053056993D01*
X-000052176883Y-000065862200D02*
X-000050923393D01*
X-000054301593D02*
X-000053056993D01*
X-000052176883Y-000065853284D02*
X-000050923393D01*
X-000054301593D02*
X-000053056993D01*
X-000052176883Y-000065844394D02*
X-000050923393D01*
X-000054301593D02*
X-000053056993D01*
X-000052176883Y-000065835479D02*
X-000050923393D01*
X-000054301593D02*
X-000053056993D01*
X-000052185798Y-000065826690D02*
X-000050923393D01*
X-000054301593D02*
X-000053048077D01*
X-000052185798Y-000065817775D02*
X-000050923393D01*
X-000054301593D02*
X-000053048077D01*
X-000052185798Y-000065808885D02*
X-000050923393D01*
X-000054301593D02*
X-000053048077D01*
X-000052194688Y-000065799995D02*
X-000050923393D01*
X-000054301593D02*
X-000053039187D01*
X-000052194688Y-000065791080D02*
X-000050923393D01*
X-000054301593D02*
X-000053030297D01*
X-000052194688Y-000065782190D02*
X-000050923393D01*
X-000054301593D02*
X-000053030297D01*
X-000052203578Y-000065773300D02*
X-000050923393D01*
X-000054301593D02*
X-000053021484D01*
X-000052203578Y-000065764384D02*
X-000050923393D01*
X-000054301593D02*
X-000053021484D01*
X-000052212494Y-000065755494D02*
X-000050923393D01*
X-000054301593D02*
X-000053021484D01*
X-000052212494Y-000065746680D02*
X-000050923393D01*
X-000054301593D02*
X-000053012594D01*
X-000052212494Y-000065737790D02*
X-000050932283D01*
X-000054301593D02*
X-000053012594D01*
X-000052221384Y-000065728875D02*
X-000050932283D01*
X-000054292677D02*
X-000053003678D01*
X-000052230197Y-000065719985D02*
X-000050950088D01*
X-000054274897D02*
X-000052994788D01*
X-000052230197Y-000065711095D02*
X-000050994487D01*
X-000054230498D02*
X-000052994788D01*
X-000052239087Y-000065702180D02*
X-000051021183D01*
X-000054212693D02*
X-000052985898D01*
X-000052247977Y-000065693290D02*
X-000051056794D01*
X-000054159378D02*
X-000052976983D01*
X-000052256893Y-000065684400D02*
X-000051092277D01*
X-000054132683D02*
X-000052976983D01*
X-000052256893Y-000065675484D02*
X-000051145694D01*
X-000054079394D02*
X-000052968093D01*
X-000052265783Y-000065666594D02*
X-000051198983D01*
X-000054025977D02*
X-000052959177D01*
X-000052274698Y-000065657780D02*
X-000051261187D01*
X-000053963798D02*
X-000052950287D01*
X-000052283588Y-000065648890D02*
X-000051314578D01*
X-000053910382D02*
X-000052941397D01*
X-000052292478Y-000065639975D02*
X-000051358977D01*
X-000053865983D02*
X-000052932482D01*
X-000052301394Y-000065631085D02*
X-000051367893D01*
X-000053857093D02*
X-000052923694D01*
X-000052310182Y-000065622195D02*
X-000051376783D01*
X-000053857093D02*
X-000052923694D01*
X-000052319097Y-000065613280D02*
X-000051376783D01*
X-000053857093D02*
X-000052914778D01*
X-000052327987Y-000065604390D02*
X-000051385698D01*
X-000053839287D02*
X-000052896998D01*
X-000052345793Y-000065595500D02*
X-000051385698D01*
X-000053839287D02*
X-000052888083D01*
X-000052354683Y-000065586584D02*
X-000051385698D01*
X-000053839287D02*
X-000052870277D01*
X-000052372488Y-000065577694D02*
X-000051394588D01*
X-000053830397D02*
X-000052861387D01*
X-000052381378Y-000065568779D02*
X-000051394588D01*
X-000053830397D02*
X-000052843684D01*
X-000052399184Y-000065559990D02*
X-000051394588D01*
X-000053830397D02*
X-000052825878D01*
X-000052407997Y-000065551075D02*
X-000051403478D01*
X-000053821482D02*
X-000052816988D01*
X-000052425777Y-000065542185D02*
X-000051403478D01*
X-000053821482D02*
X-000052799183D01*
X-000052434693Y-000065533295D02*
X-000051403478D01*
X-000053821482D02*
X-000052790293D01*
X-000052434693Y-000065524380D02*
X-000051412394D01*
X-000053812694D02*
X-000052790293D01*
X-000052443583Y-000065515490D02*
X-000051412394D01*
X-000053812694D02*
X-000052781377D01*
X-000052443583Y-000065506600D02*
X-000051412394D01*
X-000053803778D02*
X-000052781377D01*
X-000052443583Y-000065497684D02*
X-000051421182D01*
X-000053803778D02*
X-000052781377D01*
X-000052434693Y-000065488794D02*
X-000051430097D01*
X-000053803778D02*
X-000052790293D01*
X-000052434693Y-000065479879D02*
X-000051430097D01*
X-000053794888D02*
X-000052790293D01*
X-000052434693Y-000065471090D02*
X-000051438987D01*
X-000053794888D02*
X-000052790293D01*
X-000052425777Y-000065462175D02*
X-000051438987D01*
X-000053794888D02*
X-000052799183D01*
X-000052425777Y-000065453285D02*
X-000051438987D01*
X-000053785998D02*
X-000052799183D01*
X-000052425777Y-000065444395D02*
X-000051447877D01*
X-000053785998D02*
X-000052808098D01*
X-000052416887Y-000065435480D02*
X-000051447877D01*
X-000053785998D02*
X-000052808098D01*
X-000052416887Y-000065426590D02*
X-000051447877D01*
X-000053768193D02*
X-000052808098D01*
X-000052407997Y-000065417700D02*
X-000051456793D01*
X-000053768193D02*
X-000052816988D01*
X-000052407997Y-000065408784D02*
X-000051456793D01*
X-000053768193D02*
X-000052825878D01*
X-000052407997Y-000065399894D02*
X-000051456793D01*
X-000053759277D02*
X-000052825878D01*
X-000052399184Y-000065391080D02*
X-000051465683D01*
X-000053759277D02*
X-000052834794D01*
X-000052399184Y-000065382190D02*
X-000051465683D01*
X-000053759277D02*
X-000052834794D01*
X-000052390294Y-000065373275D02*
X-000051465683D01*
X-000053750387D02*
X-000052834794D01*
X-000052390294Y-000065364385D02*
X-000051474598D01*
X-000053750387D02*
X-000052843684D01*
X-000052390294Y-000065355495D02*
X-000051483488D01*
X-000053750387D02*
X-000052843684D01*
X-000052381378Y-000065346580D02*
X-000051483488D01*
X-000053741497D02*
X-000052843684D01*
X-000052381378Y-000065337690D02*
X-000051483488D01*
X-000053741497D02*
X-000052852497D01*
X-000052381378Y-000065328800D02*
X-000051492378D01*
X-000053741497D02*
X-000052852497D01*
X-000052363598Y-000065319884D02*
X-000051501294D01*
X-000053732684D02*
X-000052852497D01*
X-000052363598Y-000065310994D02*
X-000051501294D01*
X-000053732684D02*
X-000052861387D01*
X-000052354683Y-000065302079D02*
X-000051501294D01*
X-000053732684D02*
X-000052861387D01*
X-000052354683Y-000065293290D02*
X-000051501294D01*
X-000053732684D02*
X-000052861387D01*
X-000052354683Y-000065284375D02*
X-000051483488D01*
X-000053741497D02*
X-000052870277D01*
X-000052345793Y-000065275485D02*
X-000051474598D01*
X-000053741497D02*
X-000052870277D01*
X-000052345793Y-000065266595D02*
X-000051474598D01*
X-000053750387D02*
X-000052879193D01*
X-000052345793Y-000065257680D02*
X-000051465683D01*
X-000053759277D02*
X-000052879193D01*
X-000052336877Y-000065248790D02*
X-000051456793D01*
X-000053759277D02*
X-000052879193D01*
X-000052336877Y-000065239900D02*
X-000051456793D01*
X-000053768193D02*
X-000052888083D01*
X-000052336877Y-000065230984D02*
X-000051447877D01*
X-000053777083D02*
X-000052888083D01*
X-000052327987Y-000065222094D02*
X-000051447877D01*
X-000053785998D02*
X-000052896998D01*
X-000052327987Y-000065213179D02*
X-000051438987D01*
X-000053785998D02*
X-000052905888D01*
X-000052327987Y-000065204390D02*
X-000051430097D01*
X-000053794888D02*
X-000052905888D01*
X-000052319097Y-000065195475D02*
X-000051430097D01*
X-000053803778D02*
X-000052914778D01*
X-000052319097Y-000065186585D02*
X-000051421182D01*
X-000053812694D02*
X-000052914778D01*
X-000052319097Y-000065177695D02*
X-000051412394D01*
X-000053812694D02*
X-000052914778D01*
X-000052310182Y-000065168780D02*
X-000051403478D01*
X-000053821482D02*
X-000052923694D01*
X-000052301394Y-000065159890D02*
X-000051403478D01*
X-000053830397D02*
X-000052923694D01*
X-000052301394Y-000065151000D02*
X-000051394588D01*
X-000053830397D02*
X-000052932482D01*
X-000052292478Y-000065142084D02*
X-000051385698D01*
X-000053839287D02*
X-000052932482D01*
X-000052292478Y-000065133194D02*
X-000051385698D01*
X-000053839287D02*
X-000052932482D01*
X-000052292478Y-000065124380D02*
X-000051376783D01*
X-000053848177D02*
X-000052941397D01*
X-000052283588Y-000065115490D02*
X-000051367893D01*
X-000053857093D02*
X-000052941397D01*
X-000052274698Y-000065106575D02*
X-000051367893D01*
X-000053865983D02*
X-000052941397D01*
X-000052274698Y-000065097685D02*
X-000051358977D01*
X-000053865983D02*
X-000052950287D01*
X-000052274698Y-000065088795D02*
X-000051350087D01*
X-000053874898D02*
X-000052950287D01*
X-000052265783Y-000065079880D02*
X-000051350087D01*
X-000053874898D02*
X-000052950287D01*
X-000052265783Y-000065070990D02*
X-000051341197D01*
X-000053883788D02*
X-000052959177D01*
X-000052256893Y-000065062100D02*
X-000051332384D01*
X-000053892678D02*
X-000052968093D01*
X-000052256893Y-000065053184D02*
X-000051323494D01*
X-000053892678D02*
X-000052959177D01*
X-000052256893Y-000065044294D02*
X-000051323494D01*
X-000053901594D02*
X-000052968093D01*
X-000052247977Y-000065035480D02*
X-000051314578D01*
X-000053910382D02*
X-000052976983D01*
X-000052247977Y-000065026590D02*
X-000051305688D01*
X-000053919297D02*
X-000052976983D01*
X-000052247977Y-000065017675D02*
X-000051305688D01*
X-000053919297D02*
X-000052985898D01*
X-000052239087Y-000065008785D02*
X-000051296798D01*
X-000053928187D02*
X-000052985898D01*
X-000052239087Y-000064999895D02*
X-000051296798D01*
X-000053937077D02*
X-000052985898D01*
X-000052239087Y-000064990980D02*
X-000051287883D01*
X-000053945993D02*
X-000052994788D01*
X-000052230197Y-000064982090D02*
X-000051278993D01*
X-000053945993D02*
X-000052994788D01*
X-000052221384Y-000064973200D02*
X-000051270077D01*
X-000053954883D02*
X-000053003678D01*
X-000052221384Y-000064964284D02*
X-000051261187D01*
X-000053963798D02*
X-000053003678D01*
X-000052221384Y-000064955394D02*
X-000051261187D01*
X-000053963798D02*
X-000053012594D01*
X-000052212494Y-000064946479D02*
X-000051261187D01*
X-000053963798D02*
X-000053012594D01*
X-000052212494Y-000064937690D02*
X-000051261187D01*
X-000053963798D02*
X-000053012594D01*
X-000052203578Y-000064928775D02*
X-000051261187D01*
X-000053963798D02*
X-000053021484D01*
X-000052203578Y-000064919885D02*
X-000051270077D01*
X-000053954883D02*
X-000053021484D01*
X-000052203578Y-000064910995D02*
X-000051278993D01*
X-000053945993D02*
X-000053021484D01*
X-000052194688Y-000064902080D02*
X-000051287883D01*
X-000053937077D02*
X-000053030297D01*
X-000052194688Y-000064893190D02*
X-000051296798D01*
X-000053928187D02*
X-000053030297D01*
X-000052194688Y-000064884300D02*
X-000051305688D01*
X-000053919297D02*
X-000053030297D01*
X-000052185798Y-000064875384D02*
X-000051314578D01*
X-000053910382D02*
X-000053048077D01*
X-000052185798Y-000064866494D02*
X-000051323494D01*
X-000053901594D02*
X-000053048077D01*
X-000052176883Y-000064857680D02*
X-000051332384D01*
X-000053892678D02*
X-000053048077D01*
X-000052176883Y-000064848790D02*
X-000051341197D01*
X-000053883788D02*
X-000053056993D01*
X-000051936878Y-000064839875D02*
X-000051350087D01*
X-000052176883D02*
X-000051963497D01*
X-000053261488D02*
X-000053056993D01*
X-000053874898D02*
X-000053288184D01*
X-000051927988Y-000064830985D02*
X-000051358977D01*
X-000052167993D02*
X-000051981277D01*
X-000053252598D02*
X-000053056993D01*
X-000053865983D02*
X-000053296997D01*
X-000051919098Y-000064822095D02*
X-000051367893D01*
X-000052167993D02*
X-000051990193D01*
X-000053234793D02*
X-000053065883D01*
X-000053857093D02*
X-000053305887D01*
X-000051901293Y-000064813180D02*
X-000051376783D01*
X-000052159077D02*
X-000052007998D01*
X-000053225877D02*
X-000053065883D01*
X-000053848177D02*
X-000053323693D01*
X-000051892377Y-000064804290D02*
X-000051385698D01*
X-000052159077D02*
X-000052025778D01*
X-000053208097D02*
X-000053065883D01*
X-000053839287D02*
X-000053332583D01*
X-000051883487Y-000064795400D02*
X-000051394588D01*
X-000052150187D02*
X-000052034694D01*
X-000053199182D02*
X-000053074798D01*
X-000053830397D02*
X-000053341498D01*
X-000051865682Y-000064786484D02*
X-000051403478D01*
X-000052141297D02*
X-000052052397D01*
X-000053172588D02*
X-000053074798D01*
X-000053821482D02*
X-000053359278D01*
X-000051856894Y-000064777594D02*
X-000051412394D01*
X-000052141297D02*
X-000052070177D01*
X-000053154783D02*
X-000053083688D01*
X-000053812694D02*
X-000053376982D01*
X-000051839088Y-000064768780D02*
X-000051421182D01*
X-000052141297D02*
X-000052096898D01*
X-000053136977D02*
X-000053083688D01*
X-000053803778D02*
X-000053385897D01*
X-000051821283Y-000064759890D02*
X-000051430097D01*
X-000053794888D02*
X-000053403677D01*
X-000051812393Y-000064750975D02*
X-000051438987D01*
X-000053785998D02*
X-000053421483D01*
X-000051794587Y-000064742085D02*
X-000051447877D01*
X-000053777083D02*
X-000053430398D01*
X-000051785697Y-000064733195D02*
X-000051456793D01*
X-000053768193D02*
X-000053448178D01*
X-000051776884Y-000064724280D02*
X-000051465683D01*
X-000053759277D02*
X-000053448178D01*
X-000051759078Y-000064715390D02*
X-000051474598D01*
X-000053750387D02*
X-000053465984D01*
X-000051750188Y-000064706500D02*
X-000051483488D01*
X-000053741497D02*
X-000053474797D01*
X-000051732383Y-000064697584D02*
X-000051492378D01*
X-000053732684D02*
X-000053492577D01*
X-000051723493Y-000064688694D02*
X-000051501294D01*
X-000053723794D02*
X-000053501493D01*
X-000051705687Y-000064679779D02*
X-000051510184D01*
X-000053714878D02*
X-000053519298D01*
X-000051696797Y-000064670990D02*
X-000051518997D01*
X-000053705988D02*
X-000053537078D01*
X-000051679094Y-000064662075D02*
X-000051527887D01*
X-000053697098D02*
X-000053545994D01*
X-000051670178Y-000064653185D02*
X-000051536777D01*
X-000053688183D02*
X-000053554884D01*
X-000051661288Y-000064644295D02*
X-000051545693D01*
X-000053679293D02*
X-000053563697D01*
X-000051643483Y-000064635380D02*
X-000051554583D01*
X-000053670377D02*
X-000053581477D01*
X-000051625677Y-000064626490D02*
X-000051563498D01*
X-000053661487D02*
X-000053599283D01*
X-000051616787Y-000064617600D02*
X-000051572388D01*
X-000053652597D02*
X-000053608198D01*
X-000075403379D02*
X-000075358980D01*
X-000073367595D02*
X-000073323196D01*
X-000075412295Y-000064626490D02*
X-000075350090D01*
X-000073376485D02*
X-000073314280D01*
X-000075421185Y-000064635380D02*
X-000075332285D01*
X-000073394290D02*
X-000073305390D01*
X-000075430075Y-000064644295D02*
X-000075314479D01*
X-000073412096D02*
X-000073296475D01*
X-000075438990Y-000064653185D02*
X-000075305589D01*
X-000073420986D02*
X-000073287585D01*
X-000075447880Y-000064662075D02*
X-000075296776D01*
X-000073429876D02*
X-000073278695D01*
X-000075456796Y-000064670990D02*
X-000075287886D01*
X-000073447579D02*
X-000073269779D01*
X-000075465686Y-000064679779D02*
X-000075270080D01*
X-000073456495D02*
X-000073260889D01*
X-000075474576Y-000064688694D02*
X-000075252275D01*
X-000073474275D02*
X-000073252076D01*
X-000075483491Y-000064697584D02*
X-000075243385D01*
X-000073483190D02*
X-000073243186D01*
X-000075492279Y-000064706500D02*
X-000075225579D01*
X-000073500996D02*
X-000073234296D01*
X-000075501195Y-000064715390D02*
X-000075216791D01*
X-000073509886D02*
X-000073225380D01*
X-000075510085Y-000064724280D02*
X-000075198986D01*
X-000073527589D02*
X-000073216490D01*
X-000075518975Y-000064733195D02*
X-000075198986D01*
X-000073536479D02*
X-000073207575D01*
X-000075527890Y-000064742085D02*
X-000075181180D01*
X-000073545395D02*
X-000073198685D01*
X-000075536780Y-000064750975D02*
X-000075172290D01*
X-000073563175D02*
X-000073189795D01*
X-000075545696Y-000064759890D02*
X-000075154485D01*
X-000073572090D02*
X-000073180879D01*
X-000075554586Y-000064768780D02*
X-000075136679D01*
X-000074887785D02*
X-000074834496D01*
X-000073892079D02*
X-000073847680D01*
X-000073589896D02*
X-000073172091D01*
X-000075563476Y-000064777594D02*
X-000075127891D01*
X-000074905590D02*
X-000074834496D01*
X-000073892079D02*
X-000073820985D01*
X-000073607676D02*
X-000073163176D01*
X-000075572289Y-000064786484D02*
X-000075110086D01*
X-000074923396D02*
X-000074825580D01*
X-000073892079D02*
X-000073803179D01*
X-000073616489D02*
X-000073154286D01*
X-000075581179Y-000064795400D02*
X-000075092280D01*
X-000074950091D02*
X-000074825580D01*
X-000073900995D02*
X-000073785476D01*
X-000073634295D02*
X-000073145396D01*
X-000075590095Y-000064804290D02*
X-000075083390D01*
X-000074958879D02*
X-000074816690D01*
X-000073909885D02*
X-000073776586D01*
X-000073643185D02*
X-000073136480D01*
X-000075598985Y-000064813180D02*
X-000075074475D01*
X-000074976685D02*
X-000074816690D01*
X-000073909885D02*
X-000073758780D01*
X-000073652075D02*
X-000073127590D01*
X-000075607875Y-000064822095D02*
X-000075056695D01*
X-000074985575D02*
X-000074816690D01*
X-000073918775D02*
X-000073740975D01*
X-000073669880D02*
X-000073118675D01*
X-000075616790Y-000064830985D02*
X-000075047779D01*
X-000075003380D02*
X-000074807775D01*
X-000073918775D02*
X-000073732085D01*
X-000073678796D02*
X-000073109785D01*
X-000075625680Y-000064839875D02*
X-000075038889D01*
X-000075012296D02*
X-000074807775D01*
X-000073927690D02*
X-000073714279D01*
X-000073687686D02*
X-000073100895D01*
X-000075634596Y-000064848790D02*
X-000074807775D01*
X-000073927690D02*
X-000073091979D01*
X-000075643486Y-000064857680D02*
X-000074798885D01*
X-000073927690D02*
X-000073083191D01*
X-000075652376Y-000064866494D02*
X-000074798885D01*
X-000073936580D02*
X-000073074276D01*
X-000075661189Y-000064875384D02*
X-000074798885D01*
X-000073936580D02*
X-000073065386D01*
X-000075670079Y-000064884300D02*
X-000074781079D01*
X-000073945496D02*
X-000073056496D01*
X-000075678995Y-000064893190D02*
X-000074781079D01*
X-000073945496D02*
X-000073047580D01*
X-000075687885Y-000064902080D02*
X-000074781079D01*
X-000073945496D02*
X-000073038690D01*
X-000075696775Y-000064910995D02*
X-000074772189D01*
X-000073954386D02*
X-000073029775D01*
X-000075705690Y-000064919885D02*
X-000074772189D01*
X-000073954386D02*
X-000073020885D01*
X-000075714580Y-000064928775D02*
X-000074772189D01*
X-000073954386D02*
X-000073011995D01*
X-000075714580Y-000064937690D02*
X-000074763376D01*
X-000073963276D02*
X-000073011995D01*
X-000075714580Y-000064946479D02*
X-000074763376D01*
X-000073963276D02*
X-000073011995D01*
X-000075714580Y-000064955394D02*
X-000074763376D01*
X-000073972191D02*
X-000073011995D01*
X-000075714580Y-000064964284D02*
X-000074754486D01*
X-000073972191D02*
X-000073011995D01*
X-000075705690Y-000064973200D02*
X-000074754486D01*
X-000073972191D02*
X-000073020885D01*
X-000075696775Y-000064982090D02*
X-000074745596D01*
X-000073980979D02*
X-000073029775D01*
X-000075696775Y-000064990980D02*
X-000074745596D01*
X-000073989895D02*
X-000073038690D01*
X-000075687885Y-000064999895D02*
X-000074736680D01*
X-000073989895D02*
X-000073047580D01*
X-000075678995Y-000065008785D02*
X-000074736680D01*
X-000073989895D02*
X-000073047580D01*
X-000075670079Y-000065017675D02*
X-000074736680D01*
X-000073998785D02*
X-000073056496D01*
X-000075670079Y-000065026590D02*
X-000074727790D01*
X-000073998785D02*
X-000073056496D01*
X-000075661189Y-000065035480D02*
X-000074727790D01*
X-000073998785D02*
X-000073065386D01*
X-000075652376Y-000065044294D02*
X-000074718875D01*
X-000074007675D02*
X-000073074276D01*
X-000075643486Y-000065053184D02*
X-000074709985D01*
X-000074007675D02*
X-000073074276D01*
X-000075643486Y-000065062100D02*
X-000074718875D01*
X-000074007675D02*
X-000073083191D01*
X-000075634596Y-000065070990D02*
X-000074709985D01*
X-000074016590D02*
X-000073091979D01*
X-000075625680Y-000065079880D02*
X-000074701095D01*
X-000074016590D02*
X-000073100895D01*
X-000075625680Y-000065088795D02*
X-000074701095D01*
X-000074025480D02*
X-000073100895D01*
X-000075616790Y-000065097685D02*
X-000074701095D01*
X-000074025480D02*
X-000073109785D01*
X-000075616790Y-000065106575D02*
X-000074692179D01*
X-000074025480D02*
X-000073118675D01*
X-000075607875Y-000065115490D02*
X-000074692179D01*
X-000074034396D02*
X-000073118675D01*
X-000075598985Y-000065124380D02*
X-000074692179D01*
X-000074043286D02*
X-000073127590D01*
X-000075590095Y-000065133194D02*
X-000074683289D01*
X-000074043286D02*
X-000073136480D01*
X-000075590095Y-000065142084D02*
X-000074683289D01*
X-000074043286D02*
X-000073136480D01*
X-000075581179Y-000065151000D02*
X-000074683289D01*
X-000074052176D02*
X-000073145396D01*
X-000075581179Y-000065159890D02*
X-000074674476D01*
X-000074052176D02*
X-000073154286D01*
X-000075572289Y-000065168780D02*
X-000074674476D01*
X-000074061091D02*
X-000073154286D01*
X-000075563476Y-000065177695D02*
X-000074665586D01*
X-000074069879D02*
X-000073163176D01*
X-000075563476Y-000065186585D02*
X-000074665586D01*
X-000074069879D02*
X-000073172091D01*
X-000075554586Y-000065195475D02*
X-000074665586D01*
X-000074069879D02*
X-000073180879D01*
X-000075545696Y-000065204390D02*
X-000074656696D01*
X-000074078795D02*
X-000073180879D01*
X-000075536780Y-000065213179D02*
X-000074656696D01*
X-000074078795D02*
X-000073189795D01*
X-000075536780Y-000065222094D02*
X-000074647780D01*
X-000074078795D02*
X-000073198685D01*
X-000075527890Y-000065230984D02*
X-000074638890D01*
X-000074087685D02*
X-000073198685D01*
X-000075518975Y-000065239900D02*
X-000074638890D01*
X-000074087685D02*
X-000073207575D01*
X-000075510085Y-000065248790D02*
X-000074629975D01*
X-000074087685D02*
X-000073207575D01*
X-000075510085Y-000065257680D02*
X-000074629975D01*
X-000074096575D02*
X-000073216490D01*
X-000075501195Y-000065266595D02*
X-000074629975D01*
X-000074096575D02*
X-000073225380D01*
X-000075492279Y-000065275485D02*
X-000074621085D01*
X-000074096575D02*
X-000073225380D01*
X-000075492279Y-000065284375D02*
X-000074621085D01*
X-000074105490D02*
X-000073234296D01*
X-000075483491Y-000065293290D02*
X-000074612195D01*
X-000074105490D02*
X-000073252076D01*
X-000075483491Y-000065302079D02*
X-000074612195D01*
X-000074105490D02*
X-000073252076D01*
X-000075483491Y-000065310994D02*
X-000074612195D01*
X-000074114380D02*
X-000073252076D01*
X-000075483491Y-000065319884D02*
X-000074603279D01*
X-000074114380D02*
X-000073252076D01*
X-000075492279Y-000065328800D02*
X-000074603279D01*
X-000074132186D02*
X-000073243186D01*
X-000075492279Y-000065337690D02*
X-000074603279D01*
X-000074132186D02*
X-000073234296D01*
X-000075492279Y-000065346580D02*
X-000074594491D01*
X-000074132186D02*
X-000073234296D01*
X-000075501195Y-000065355495D02*
X-000074594491D01*
X-000074141076D02*
X-000073234296D01*
X-000075501195Y-000065364385D02*
X-000074594491D01*
X-000074141076D02*
X-000073225380D01*
X-000075501195Y-000065373275D02*
X-000074585576D01*
X-000074141076D02*
X-000073216490D01*
X-000075510085Y-000065382190D02*
X-000074585576D01*
X-000074149889D02*
X-000073216490D01*
X-000075510085Y-000065391080D02*
X-000074585576D01*
X-000074149889D02*
X-000073216490D01*
X-000075510085Y-000065399894D02*
X-000074576686D01*
X-000074158779D02*
X-000073207575D01*
X-000075518975Y-000065408784D02*
X-000074576686D01*
X-000074158779D02*
X-000073207575D01*
X-000075518975Y-000065417700D02*
X-000074567796D01*
X-000074158779D02*
X-000073207575D01*
X-000075518975Y-000065426590D02*
X-000074558880D01*
X-000074167695D02*
X-000073198685D01*
X-000075536780Y-000065435480D02*
X-000074558880D01*
X-000074167695D02*
X-000073198685D01*
X-000075536780Y-000065444395D02*
X-000074558880D01*
X-000074176585D02*
X-000073198685D01*
X-000075536780Y-000065453285D02*
X-000074549990D01*
X-000074176585D02*
X-000073189795D01*
X-000075545696Y-000065462175D02*
X-000074549990D01*
X-000074176585D02*
X-000073189795D01*
X-000075545696Y-000065471090D02*
X-000074541075D01*
X-000074185475D02*
X-000073189795D01*
X-000075545696Y-000065479879D02*
X-000074541075D01*
X-000074185475D02*
X-000073180879D01*
X-000075554586Y-000065488794D02*
X-000074541075D01*
X-000074185475D02*
X-000073180879D01*
X-000075554586Y-000065497684D02*
X-000074532185D01*
X-000074194390D02*
X-000073172091D01*
X-000075554586Y-000065506600D02*
X-000074532185D01*
X-000074194390D02*
X-000073163176D01*
X-000075563476Y-000065515490D02*
X-000074532185D01*
X-000074194390D02*
X-000073163176D01*
X-000075563476Y-000065524380D02*
X-000074541075D01*
X-000074185475D02*
X-000073163176D01*
X-000075572289Y-000065533295D02*
X-000074541075D01*
X-000074185475D02*
X-000073154286D01*
X-000075572289Y-000065542185D02*
X-000074549990D01*
X-000074176585D02*
X-000073154286D01*
X-000075572289Y-000065551075D02*
X-000074567796D01*
X-000074158779D02*
X-000073154286D01*
X-000075581179Y-000065559990D02*
X-000074576686D01*
X-000074149889D02*
X-000073145396D01*
X-000075581179Y-000065568779D02*
X-000074594491D01*
X-000074132186D02*
X-000073145396D01*
X-000075581179Y-000065577694D02*
X-000074612195D01*
X-000074123296D02*
X-000073145396D01*
X-000075590095Y-000065586584D02*
X-000074621085D01*
X-000074105490D02*
X-000073136480D01*
X-000075590095Y-000065595500D02*
X-000074638890D01*
X-000074096575D02*
X-000073136480D01*
X-000075590095Y-000065604390D02*
X-000074647780D01*
X-000074078795D02*
X-000073136480D01*
X-000075607875Y-000065613280D02*
X-000074665586D01*
X-000074069879D02*
X-000073127590D01*
X-000075607875Y-000065622195D02*
X-000074674476D01*
X-000074061091D02*
X-000073127590D01*
X-000075607875Y-000065631085D02*
X-000074674476D01*
X-000074052176D02*
X-000073118675D01*
X-000075616790Y-000065639975D02*
X-000074683289D01*
X-000074043286D02*
X-000073109785D01*
X-000075661189Y-000065648890D02*
X-000074692179D01*
X-000074034396D02*
X-000073065386D01*
X-000075714580Y-000065657780D02*
X-000074701095D01*
X-000074025480D02*
X-000073011995D01*
X-000075776785Y-000065666594D02*
X-000074709985D01*
X-000074016590D02*
X-000072949790D01*
X-000075830176Y-000065675484D02*
X-000074718875D01*
X-000074007675D02*
X-000072896476D01*
X-000075883490Y-000065684400D02*
X-000074727790D01*
X-000074007675D02*
X-000072843085D01*
X-000075910186Y-000065693290D02*
X-000074727790D01*
X-000073998785D02*
X-000072807576D01*
X-000075963475Y-000065702180D02*
X-000074736680D01*
X-000073989895D02*
X-000072771990D01*
X-000075981280Y-000065711095D02*
X-000074745596D01*
X-000073980979D02*
X-000072745295D01*
X-000076025679Y-000065719985D02*
X-000074745596D01*
X-000073980979D02*
X-000072700896D01*
X-000076043485Y-000065728875D02*
X-000074754486D01*
X-000073972191D02*
X-000072683090D01*
X-000076052375Y-000065737790D02*
X-000074763376D01*
X-000073963276D02*
X-000072683090D01*
X-000076052375Y-000065746680D02*
X-000074763376D01*
X-000073963276D02*
X-000072674175D01*
X-000076052375Y-000065755494D02*
X-000074772189D01*
X-000073963276D02*
X-000072674175D01*
X-000076052375Y-000065764384D02*
X-000074772189D01*
X-000073954386D02*
X-000072674175D01*
X-000076052375Y-000065773300D02*
X-000074772189D01*
X-000073954386D02*
X-000072674175D01*
X-000076052375Y-000065782190D02*
X-000074781079D01*
X-000073945496D02*
X-000072674175D01*
X-000076052375Y-000065791080D02*
X-000074781079D01*
X-000073945496D02*
X-000072674175D01*
X-000076052375Y-000065799995D02*
X-000074789995D01*
X-000073945496D02*
X-000072674175D01*
X-000076052375Y-000065808885D02*
X-000074798885D01*
X-000073936580D02*
X-000072674175D01*
X-000076052375Y-000065817775D02*
X-000074798885D01*
X-000073936580D02*
X-000072674175D01*
X-000076052375Y-000065826690D02*
X-000074798885D01*
X-000073936580D02*
X-000072674175D01*
X-000076052375Y-000065835479D02*
X-000074807775D01*
X-000073927690D02*
X-000072674175D01*
X-000076052375Y-000065844394D02*
X-000074807775D01*
X-000073927690D02*
X-000072674175D01*
X-000076052375Y-000065853284D02*
X-000074807775D01*
X-000073927690D02*
X-000072674175D01*
X-000076052375Y-000065862200D02*
X-000074807775D01*
X-000073927690D02*
X-000072674175D01*
X-000076052375Y-000065871090D02*
X-000074807775D01*
X-000073918775D02*
X-000072674175D01*
X-000076052375Y-000065879980D02*
X-000074807775D01*
X-000073918775D02*
X-000072674175D01*
X-000076052375Y-000065888895D02*
X-000074816690D01*
X-000073918775D02*
X-000072674175D01*
X-000076052375Y-000065897785D02*
X-000074816690D01*
X-000073918775D02*
X-000072674175D01*
X-000076052375Y-000065906675D02*
X-000074816690D01*
X-000073918775D02*
X-000072674175D01*
X-000076052375Y-000065915590D02*
X-000074816690D01*
X-000073918775D02*
X-000072674175D01*
X-000076052375Y-000065924480D02*
X-000074816690D01*
X-000073918775D02*
X-000072674175D01*
X-000076052375Y-000065933294D02*
X-000074816690D01*
X-000073918775D02*
X-000072674175D01*
X-000076052375Y-000065942184D02*
X-000074816690D01*
X-000073918775D02*
X-000072674175D01*
X-000076052375Y-000065951100D02*
X-000074816690D01*
X-000073909885D02*
X-000072674175D01*
X-000076052375Y-000065959990D02*
X-000074816690D01*
X-000073909885D02*
X-000072674175D01*
X-000076052375Y-000065968880D02*
X-000074816690D01*
X-000073909885D02*
X-000072674175D01*
X-000076052375Y-000065977795D02*
X-000074816690D01*
X-000073918775D02*
X-000072674175D01*
X-000076052375Y-000065986685D02*
X-000074816690D01*
X-000073918775D02*
X-000072674175D01*
X-000076052375Y-000065995575D02*
X-000074816690D01*
X-000073918775D02*
X-000072674175D01*
X-000076052375Y-000066004490D02*
X-000074816690D01*
X-000073918775D02*
X-000072674175D01*
X-000076052375Y-000066013380D02*
X-000074816690D01*
X-000073918775D02*
X-000072674175D01*
X-000076052375Y-000066022194D02*
X-000074816690D01*
X-000073918775D02*
X-000072674175D01*
X-000076052375Y-000066031084D02*
X-000074816690D01*
X-000073918775D02*
X-000072674175D01*
X-000076052375Y-000066040000D02*
X-000074807775D01*
X-000073918775D02*
X-000072674175D01*
X-000076052375Y-000066048890D02*
X-000074807775D01*
X-000073918775D02*
X-000072674175D01*
X-000076052375Y-000066057780D02*
X-000074807775D01*
X-000073927690D02*
X-000072674175D01*
X-000076052375Y-000066066695D02*
X-000074807775D01*
X-000073927690D02*
X-000072674175D01*
X-000076052375Y-000066075585D02*
X-000074807775D01*
X-000073927690D02*
X-000072674175D01*
X-000076052375Y-000066084475D02*
X-000074798885D01*
X-000073927690D02*
X-000072674175D01*
X-000076052375Y-000066093390D02*
X-000074798885D01*
X-000073936580D02*
X-000072674175D01*
X-000076052375Y-000066102179D02*
X-000074798885D01*
X-000073936580D02*
X-000072674175D01*
X-000076052375Y-000066111094D02*
X-000074798885D01*
X-000073936580D02*
X-000072674175D01*
X-000076052375Y-000066119984D02*
X-000074789995D01*
X-000073945496D02*
X-000072674175D01*
X-000076052375Y-000066128900D02*
X-000074781079D01*
X-000073945496D02*
X-000072674175D01*
X-000076052375Y-000066137790D02*
X-000074781079D01*
X-000073945496D02*
X-000072674175D01*
X-000076052375Y-000066146680D02*
X-000074772189D01*
X-000073954386D02*
X-000072674175D01*
X-000076052375Y-000066155595D02*
X-000074772189D01*
X-000073954386D02*
X-000072674175D01*
X-000076052375Y-000066164485D02*
X-000074772189D01*
X-000073963276D02*
X-000072674175D01*
X-000076052375Y-000066173375D02*
X-000074763376D01*
X-000073963276D02*
X-000072674175D01*
X-000076052375Y-000066182290D02*
X-000074763376D01*
X-000073963276D02*
X-000072674175D01*
X-000076043485Y-000066191079D02*
X-000074754486D01*
X-000073972191D02*
X-000072683090D01*
X-000076034595Y-000066199994D02*
X-000074745596D01*
X-000073980979D02*
X-000072691980D01*
X-000076016891Y-000066208884D02*
X-000074745596D01*
X-000073989895D02*
X-000072709786D01*
X-000075999086Y-000066217800D02*
X-000074736680D01*
X-000073989895D02*
X-000072727489D01*
X-000075936779Y-000066226690D02*
X-000074727790D01*
X-000073998785D02*
X-000072789796D01*
X-000075874575Y-000066235580D02*
X-000074727790D01*
X-000074007675D02*
X-000072851975D01*
X-000075821286Y-000066244495D02*
X-000074718875D01*
X-000074007675D02*
X-000072905289D01*
X-000075767895Y-000066253385D02*
X-000074709985D01*
X-000074016590D02*
X-000072958680D01*
X-000075714580Y-000066262275D02*
X-000074701095D01*
X-000074025480D02*
X-000073020885D01*
X-000075687885Y-000066271190D02*
X-000074692179D01*
X-000074034396D02*
X-000073047580D01*
X-000075652376Y-000066280080D02*
X-000074683289D01*
X-000074043286D02*
X-000073083191D01*
X-000075607875Y-000066288894D02*
X-000074674476D01*
X-000074052176D02*
X-000073118675D01*
X-000075598985Y-000066297784D02*
X-000074665586D01*
X-000074061091D02*
X-000073136480D01*
X-000075590095Y-000066306700D02*
X-000074656696D01*
X-000074069879D02*
X-000073136480D01*
X-000075590095Y-000066315590D02*
X-000074647780D01*
X-000074087685D02*
X-000073136480D01*
X-000075581179Y-000066324480D02*
X-000074629975D01*
X-000074096575D02*
X-000073145396D01*
X-000075581179Y-000066333395D02*
X-000074621085D01*
X-000074105490D02*
X-000073145396D01*
X-000075581179Y-000066342285D02*
X-000074603279D01*
X-000074123296D02*
X-000073154286D01*
X-000075572289Y-000066351175D02*
X-000074585576D01*
X-000074141076D02*
X-000073154286D01*
X-000075572289Y-000066360090D02*
X-000074585576D01*
X-000074149889D02*
X-000073154286D01*
X-000075563476Y-000066368879D02*
X-000074567796D01*
X-000074167695D02*
X-000073163176D01*
X-000075563476Y-000066377794D02*
X-000074549990D01*
X-000074185475D02*
X-000073163176D01*
X-000075554586Y-000066386684D02*
X-000074523295D01*
X-000074203280D02*
X-000073172091D01*
X-000075554586Y-000066395600D02*
X-000074487786D01*
X-000074238891D02*
X-000073172091D01*
X-000075554586Y-000066404490D02*
X-000074443285D01*
X-000074283290D02*
X-000073180879D01*
X-000075545696Y-000066413380D02*
X-000073180879D01*
X-000075545696Y-000066422295D02*
X-000073189795D01*
X-000075536780Y-000066431185D02*
X-000073189795D01*
X-000075536780Y-000066440075D02*
X-000073189795D01*
X-000075536780Y-000066448990D02*
X-000073198685D01*
X-000075527890Y-000066457779D02*
X-000073198685D01*
X-000075518975Y-000066466694D02*
X-000073207575D01*
X-000075518975Y-000066475584D02*
X-000073207575D01*
X-000075510085Y-000066484500D02*
X-000073207575D01*
X-000075510085Y-000066493390D02*
X-000073216490D01*
X-000075510085Y-000066502280D02*
X-000073216490D01*
X-000075501195Y-000066511195D02*
X-000073216490D01*
X-000075501195Y-000066520085D02*
X-000073225380D01*
X-000075492279Y-000066528975D02*
X-000073225380D01*
X-000075492279Y-000066537890D02*
X-000073234296D01*
X-000075492279Y-000066546780D02*
X-000073234296D01*
X-000075483491Y-000066555594D02*
X-000073243186D01*
X-000075483491Y-000066564484D02*
X-000073252076D01*
X-000075483491Y-000066573400D02*
X-000073252076D01*
X-000075474576Y-000066582290D02*
X-000073260889D01*
X-000075474576Y-000066591179D02*
X-000073260889D01*
X-000075474576Y-000066600095D02*
X-000073260889D01*
X-000075474576Y-000066608985D02*
X-000073260889D01*
X-000075474576Y-000066617875D02*
X-000073252076D01*
X-000075483491Y-000066626790D02*
X-000073252076D01*
X-000075492279Y-000066635680D02*
X-000073243186D01*
X-000075492279Y-000066644494D02*
X-000073234296D01*
X-000075501195Y-000066653384D02*
X-000073225380D01*
X-000075501195Y-000066662299D02*
X-000073216490D01*
X-000075510085Y-000066671189D02*
X-000073216490D01*
X-000075518975Y-000066680079D02*
X-000073207575D01*
X-000075518975Y-000066688995D02*
X-000073198685D01*
X-000075527890Y-000066697885D02*
X-000073198685D01*
X-000075536780Y-000066706775D02*
X-000073189795D01*
X-000075545696Y-000066715690D02*
X-000073189795D01*
X-000075545696Y-000066724479D02*
X-000073180879D01*
X-000075554586Y-000066733394D02*
X-000073172091D01*
X-000075563476Y-000066742284D02*
X-000073172091D01*
X-000075563476Y-000066751199D02*
X-000073163176D01*
X-000075572289Y-000066760089D02*
X-000073154286D01*
X-000075581179Y-000066768979D02*
X-000073145396D01*
X-000075581179Y-000066777895D02*
X-000073145396D01*
X-000075590095Y-000066786785D02*
X-000073136480D01*
X-000075590095Y-000066795675D02*
X-000073136480D01*
X-000075598985Y-000066804590D02*
X-000073127590D01*
X-000075616790Y-000066813480D02*
X-000073118675D01*
X-000075616790Y-000066822294D02*
X-000073118675D01*
X-000075625680Y-000066831184D02*
X-000073109785D01*
X-000075625680Y-000066840099D02*
X-000073100895D01*
X-000075634596Y-000066848989D02*
X-000073091979D01*
X-000075643486Y-000066857879D02*
X-000073083191D01*
X-000075643486Y-000066866795D02*
X-000073083191D01*
X-000075652376Y-000066875685D02*
X-000073074276D01*
X-000075661189Y-000066884575D02*
X-000073065386D01*
X-000075670079Y-000066893490D02*
X-000073065386D01*
X-000075670079Y-000066902380D02*
X-000073056496D01*
X-000075678995Y-000066911194D02*
X-000073056496D01*
X-000075687885Y-000066920084D02*
X-000073047580D01*
X-000075696775Y-000066928999D02*
X-000073047580D01*
X-000075696775Y-000066937889D02*
X-000073038690D01*
X-000075705690Y-000066946779D02*
X-000073029775D01*
X-000075705690Y-000066955695D02*
X-000073020885D01*
X-000075714580Y-000066964585D02*
X-000073011995D01*
X-000075714580Y-000066973475D02*
X-000073011995D01*
X-000075714580Y-000066982390D02*
X-000073011995D01*
X-000075714580Y-000066991179D02*
X-000073011995D01*
X-000075714580Y-000067000094D02*
X-000073020885D01*
X-000075705690Y-000067008984D02*
X-000073029775D01*
X-000075696775Y-000067017899D02*
X-000073038690D01*
X-000075687885Y-000067026789D02*
X-000073047580D01*
X-000075678995Y-000067035679D02*
X-000073056496D01*
X-000075670079Y-000067044595D02*
X-000073065386D01*
X-000075661189Y-000067053485D02*
X-000073074276D01*
X-000075652376Y-000067062375D02*
X-000073083191D01*
X-000075643486Y-000067071290D02*
X-000075021186D01*
X-000074967795D02*
X-000073758780D01*
X-000073714279D02*
X-000073091979D01*
X-000075634596Y-000067080079D02*
X-000075030076D01*
X-000074941176D02*
X-000073785476D01*
X-000073696576D02*
X-000073100895D01*
X-000075625680Y-000067088994D02*
X-000075047779D01*
X-000074923396D02*
X-000073803179D01*
X-000073678796D02*
X-000073109785D01*
X-000075616790Y-000067097884D02*
X-000075056695D01*
X-000074914480D02*
X-000073812095D01*
X-000073678796D02*
X-000073118675D01*
X-000075607875Y-000067106799D02*
X-000075065585D01*
X-000074887785D02*
X-000073838790D01*
X-000073660990D02*
X-000073127590D01*
X-000075598985Y-000067115690D02*
X-000075083390D01*
X-000074861191D02*
X-000073865486D01*
X-000073643185D02*
X-000073136480D01*
X-000075590095Y-000067124580D02*
X-000075092280D01*
X-000074834496D02*
X-000073892079D01*
X-000073634295D02*
X-000073145396D01*
X-000075572289Y-000067133495D02*
X-000075110086D01*
X-000074807775D02*
X-000073918775D01*
X-000073616489D02*
X-000073154286D01*
X-000075563476Y-000067142385D02*
X-000075118976D01*
X-000074789995D02*
X-000073936580D01*
X-000073607676D02*
X-000073163176D01*
X-000075563476Y-000067151275D02*
X-000075136679D01*
X-000074781079D02*
X-000073954386D01*
X-000073598786D02*
X-000073172091D01*
X-000075554586Y-000067160190D02*
X-000075145595D01*
X-000074754486D02*
X-000073972191D01*
X-000073580980D02*
X-000073180879D01*
X-000075545696Y-000067169080D02*
X-000075154485D01*
X-000074736680D02*
X-000073998785D01*
X-000073572090D02*
X-000073189795D01*
X-000075536780Y-000067177894D02*
X-000075163375D01*
X-000074718875D02*
X-000074007675D01*
X-000073563175D02*
X-000073198685D01*
X-000075527890Y-000067186784D02*
X-000075181180D01*
X-000074692179D02*
X-000074034396D01*
X-000073545395D02*
X-000073207575D01*
X-000075518975Y-000067195700D02*
X-000075198986D01*
X-000074692179D02*
X-000074034396D01*
X-000073527589D02*
X-000073216490D01*
X-000075510085Y-000067204590D02*
X-000075216791D01*
X-000074692179D02*
X-000074034396D01*
X-000073518776D02*
X-000073225380D01*
X-000075492279Y-000067213480D02*
X-000075225579D01*
X-000074683289D02*
X-000074043286D01*
X-000073500996D02*
X-000073234296D01*
X-000075492279Y-000067222395D02*
X-000075243385D01*
X-000074683289D02*
X-000074043286D01*
X-000073483190D02*
X-000073243186D01*
X-000075483491Y-000067231285D02*
X-000075252275D01*
X-000074683289D02*
X-000074043286D01*
X-000073474275D02*
X-000073252076D01*
X-000075474576Y-000067240175D02*
X-000075261190D01*
X-000074683289D02*
X-000074043286D01*
X-000073465385D02*
X-000073260889D01*
X-000075465686Y-000067249090D02*
X-000075270080D01*
X-000074683289D02*
X-000074043286D01*
X-000073456495D02*
X-000073269779D01*
X-000075456796Y-000067257879D02*
X-000075287886D01*
X-000074674476D02*
X-000074043286D01*
X-000073438791D02*
X-000073278695D01*
X-000075447880Y-000067266794D02*
X-000075296776D01*
X-000074674476D02*
X-000074043286D01*
X-000073429876D02*
X-000073287585D01*
X-000075438990Y-000067275684D02*
X-000075314479D01*
X-000074674476D02*
X-000074052176D01*
X-000073412096D02*
X-000073296475D01*
X-000075430075Y-000067284600D02*
X-000075323395D01*
X-000074674476D02*
X-000074061091D01*
X-000073403180D02*
X-000073305390D01*
X-000075421185Y-000067293490D02*
X-000075341175D01*
X-000074674476D02*
X-000074061091D01*
X-000073385375D02*
X-000073314280D01*
X-000075412295Y-000067302380D02*
X-000075350090D01*
X-000074665586D02*
X-000074061091D01*
X-000073376485D02*
X-000073323196D01*
X-000074665586Y-000067311295D02*
X-000074061091D01*
X-000073349891D02*
X-000073340976D01*
X-000074665586Y-000067320185D02*
X-000074061091D01*
X-000074665586Y-000067329075D02*
X-000074061091D01*
X-000074665586Y-000067337990D02*
X-000074069879D01*
X-000074665586Y-000067346779D02*
X-000074069879D01*
X-000074656696Y-000067355694D02*
X-000074069879D01*
X-000074656696Y-000067364584D02*
X-000074069879D01*
X-000074656696Y-000067373500D02*
X-000074069879D01*
X-000074656696Y-000067382390D02*
X-000074069879D01*
X-000074656696Y-000067391280D02*
X-000074078795D01*
X-000074656696Y-000067400195D02*
X-000074078795D01*
X-000074656696Y-000067409085D02*
X-000074078795D01*
X-000074647780Y-000067417975D02*
X-000074078795D01*
X-000074638890Y-000067426890D02*
X-000074078795D01*
X-000074638890Y-000067435780D02*
X-000074078795D01*
X-000074638890Y-000067444594D02*
X-000074078795D01*
X-000074638890Y-000067453484D02*
X-000074087685D01*
X-000074638890Y-000067462400D02*
X-000074087685D01*
X-000074638890Y-000067471290D02*
X-000074087685D01*
X-000074629975Y-000067480180D02*
X-000074087685D01*
X-000074629975Y-000067489095D02*
X-000074087685D01*
X-000074629975Y-000067497985D02*
X-000074096575D01*
X-000074629975Y-000067506875D02*
X-000074096575D01*
X-000074629975Y-000067515790D02*
X-000074096575D01*
X-000074629975Y-000067524680D02*
X-000074096575D01*
X-000074621085Y-000067533494D02*
X-000074096575D01*
X-000074621085Y-000067542384D02*
X-000074105490D01*
X-000074621085Y-000067551300D02*
X-000074105490D01*
X-000074621085Y-000067560190D02*
X-000074105490D01*
X-000074621085Y-000067569080D02*
X-000074105490D01*
X-000074621085Y-000067577995D02*
X-000074105490D01*
X-000074612195Y-000067586885D02*
X-000074105490D01*
X-000074612195Y-000067595775D02*
X-000074114380D01*
X-000074612195Y-000067604690D02*
X-000074114380D01*
X-000074612195Y-000067613479D02*
X-000074114380D01*
X-000074612195Y-000067622394D02*
X-000074114380D01*
X-000074603279Y-000067631284D02*
X-000074123296D01*
X-000074594491Y-000067640200D02*
X-000074132186D01*
M02*