%FSDAX66Y66*%
%MOMM*%
%SFA1B1*%

%IPPOS*%
%ADD16C,0.100000*%
%LNpcb1-1*%
%LPD*%
G54D16*
X-000067444797Y-000073927995D02*
D01*
D01*
G75*
G03X-000066403397Y-000070625284I-6929166J4000425D01*
G74*G01*
X-000056622188Y-000076856183D02*
D01*
D01*
G75*
G03X-000052622196Y-000077927987I4000015J6928238D01*
G74*G01*
D01*
D01*
G75*
G03X-000048622178Y-000076856183I5J7999958D01*
G74*G01*
D01*
D01*
G75*
G03X-000045693990Y-000073927995I-3999999J6928200D01*
G74*G01*
D01*
D01*
G75*
G03Y-000065927986I-6928199J4000000D01*
G74*G01*
X-000048622178Y-000060927996D02*
D01*
D01*
G75*
G03X-000047513875Y-000063771297I4201371J13D01*
G74*G01*
X-000045693990Y-000065927986D02*
D01*
D01*
G75*
G03X-000047513875Y-000063771297I-6927755J-3999687D01*
G74*G01*
X-000057730491D02*
D01*
D01*
G75*
G03X-000059550376Y-000065927986I5108682J-6157085D01*
G74*G01*
D01*
D01*
G75*
G03X-000060270186Y-000067580891I6931831J-4001831D01*
G74*G01*
X-000060591776Y-000070625284D02*
D01*
D01*
G75*
G03X-000059550376Y-000073927995I7968564J697094D01*
G74*G01*
D01*
D01*
G75*
G03X-000056622188Y-000076856183I6928200J4000000D01*
G74*G01*
X-000051572185Y-000069927978D02*
D01*
D01*
G75*
G03X-000053672181I-1049999J0D01*
G74*G01*
D01*
G75*
G03X-000051572185I1050000J0D01*
G74*G01*
X-000056860998Y-000072461983D02*
D01*
D01*
G75*
G03X-000057260998I-199999J0D01*
G74*G01*
D01*
G75*
G03X-000056860998I199999J0D01*
G74*G01*
X-000056319293Y-000072177986D02*
D01*
D01*
G75*
G03X-000056719292I-199999J0D01*
G74*G01*
D01*
G75*
G03X-000056319293I200000J0D01*
G74*G01*
X-000052446986Y-000075039093D02*
D01*
D01*
G75*
G03X-000052846986I-199999J0D01*
G74*G01*
D01*
G75*
G03X-000052446986I199999J0D01*
G74*G01*
X-000052422196Y-000074427994D02*
D01*
D01*
G75*
G03X-000052822195I-199999J0D01*
G74*G01*
D01*
G75*
G03X-000052422196I199999J0D01*
G74*G01*
X-000048008286Y-000072505087D02*
D01*
D01*
G75*
G03X-000048408285I-200000J0D01*
G74*G01*
D01*
G75*
G03X-000048008286I199999J0D01*
G74*G01*
X-000048525099Y-000072177986D02*
D01*
D01*
G75*
G03X-000048925099I-199999J0D01*
G74*G01*
D01*
G75*
G03X-000048525099I200000J0D01*
G74*G01*
X-000047983394Y-000067393997D02*
D01*
D01*
G75*
G03X-000048383393I-199999J0D01*
G74*G01*
D01*
G75*
G03X-000047983394I200000J0D01*
G74*G01*
X-000048525099Y-000067677995D02*
D01*
D01*
G75*
G03X-000048925099I-199999J0D01*
G74*G01*
D01*
G75*
G03X-000048525099I200000J0D01*
G74*G01*
X-000052422196Y-000065427987D02*
D01*
D01*
G75*
G03X-000052822195I-199999J0D01*
G74*G01*
D01*
G75*
G03X-000052422196I199999J0D01*
G74*G01*
X-000052397380Y-000064816888D02*
D01*
D01*
G75*
G03X-000052797379I-199999J0D01*
G74*G01*
D01*
G75*
G03X-000052397380I200000J0D01*
G74*G01*
X-000056836081Y-000067350894D02*
D01*
D01*
G75*
G03X-000057236080I-199999J0D01*
G74*G01*
D01*
G75*
G03X-000056836081I199999J0D01*
G74*G01*
X-000056319293Y-000067677995D02*
D01*
D01*
G75*
G03X-000056719292I-199999J0D01*
G74*G01*
D01*
G75*
G03X-000056319293I200000J0D01*
G74*G01*
X-000057730491Y-000063771297D02*
D01*
D01*
G75*
G03X-000056622188Y-000060927996I-3092938J2843261D01*
G74*G01*
X-000048525099Y-000072177986D02*
D01*
D01*
G75*
G03X-000048925099I-199999J0D01*
G74*G01*
D01*
G75*
G03X-000048525099I200000J0D01*
G74*G01*
X-000048008286Y-000072505087D02*
D01*
D01*
G75*
G03X-000048408285I-200000J0D01*
G74*G01*
D01*
G75*
G03X-000048008286I199999J0D01*
G74*G01*
X-000052446986Y-000075039093D02*
D01*
D01*
G75*
G03X-000052846986I-199999J0D01*
G74*G01*
D01*
G75*
G03X-000052446986I199999J0D01*
G74*G01*
X-000052422196Y-000074427994D02*
D01*
D01*
G75*
G03X-000052822195I-199999J0D01*
G74*G01*
D01*
G75*
G03X-000052422196I199999J0D01*
G74*G01*
X-000056319293Y-000072177986D02*
D01*
D01*
G75*
G03X-000056719292I-199999J0D01*
G74*G01*
D01*
G75*
G03X-000056319293I200000J0D01*
G74*G01*
X-000056860998Y-000072461983D02*
D01*
D01*
G75*
G03X-000057260998I-199999J0D01*
G74*G01*
D01*
G75*
G03X-000056860998I199999J0D01*
G74*G01*
X-000078611780D02*
D01*
D01*
G75*
G03X-000079011780I-199999J0D01*
G74*G01*
D01*
G75*
G03X-000078611780I199999J0D01*
G74*G01*
X-000078070075Y-000072177986D02*
D01*
D01*
G75*
G03X-000078470099I-199999J0D01*
G74*G01*
D01*
G75*
G03X-000078070075I199999J0D01*
G74*G01*
X-000074172978Y-000074427994D02*
D01*
D01*
G75*
G03X-000074572977I-199999J0D01*
G74*G01*
D01*
G75*
G03X-000074172978I199999J0D01*
G74*G01*
X-000074197794Y-000075039093D02*
D01*
D01*
G75*
G03X-000074597793I-199999J0D01*
G74*G01*
D01*
G75*
G03X-000074197794I199999J0D01*
G74*G01*
X-000069759093Y-000072505087D02*
D01*
D01*
G75*
G03X-000070159092I-199999J0D01*
G74*G01*
D01*
G75*
G03X-000069759093I199999J0D01*
G74*G01*
X-000070275881Y-000072177986D02*
D01*
D01*
G75*
G03X-000070675881I-199999J0D01*
G74*G01*
D01*
G75*
G03X-000070275881I199999J0D01*
G74*G01*
X-000079481299Y-000063771297D02*
D01*
D01*
G75*
G03X-000078372995Y-000060927996I-3092938J2843261D01*
G74*G01*
X-000078070075Y-000067677995D02*
D01*
D01*
G75*
G03X-000078470099I-199999J0D01*
G74*G01*
D01*
G75*
G03X-000078070075I199999J0D01*
G74*G01*
X-000078586888Y-000067350894D02*
D01*
D01*
G75*
G03X-000078986888I-199999J0D01*
G74*G01*
D01*
G75*
G03X-000078586888I199999J0D01*
G74*G01*
X-000074148188Y-000064816888D02*
D01*
D01*
G75*
G03X-000074548187I-199999J0D01*
G74*G01*
D01*
G75*
G03X-000074148188I199999J0D01*
G74*G01*
X-000074172978Y-000065427987D02*
D01*
D01*
G75*
G03X-000074572977I-199999J0D01*
G74*G01*
D01*
G75*
G03X-000074172978I199999J0D01*
G74*G01*
X-000070275881Y-000067677995D02*
D01*
D01*
G75*
G03X-000070675881I-199999J0D01*
G74*G01*
D01*
G75*
G03X-000070275881I199999J0D01*
G74*G01*
X-000069734176Y-000067393997D02*
D01*
D01*
G75*
G03X-000070134175I-199999J0D01*
G74*G01*
D01*
G75*
G03X-000069734176I199999J0D01*
G74*G01*
X-000070275881Y-000072177986D02*
D01*
D01*
G75*
G03X-000070675881I-199999J0D01*
G74*G01*
D01*
G75*
G03X-000070275881I199999J0D01*
G74*G01*
X-000069759093Y-000072505087D02*
D01*
D01*
G75*
G03X-000070159092I-199999J0D01*
G74*G01*
D01*
G75*
G03X-000069759093I199999J0D01*
G74*G01*
X-000074172978Y-000074427994D02*
D01*
D01*
G75*
G03X-000074572977I-199999J0D01*
G74*G01*
D01*
G75*
G03X-000074172978I199999J0D01*
G74*G01*
X-000074197794Y-000075039093D02*
D01*
D01*
G75*
G03X-000074597793I-199999J0D01*
G74*G01*
D01*
G75*
G03X-000074197794I199999J0D01*
G74*G01*
X-000078070075Y-000072177986D02*
D01*
D01*
G75*
G03X-000078470099I-199999J0D01*
G74*G01*
D01*
G75*
G03X-000078070075I199999J0D01*
G74*G01*
X-000078611780Y-000072461983D02*
D01*
D01*
G75*
G03X-000079011780I-199999J0D01*
G74*G01*
D01*
G75*
G03X-000078611780I199999J0D01*
G74*G01*
X-000073322992Y-000069927978D02*
D01*
D01*
G75*
G03X-000075422988I-1050000J0D01*
G74*G01*
D01*
G75*
G03X-000073322992I1050000J0D01*
G74*G01*
X-000081301183Y-000073927995D02*
D01*
D01*
G75*
G03X-000078372995Y-000076856183I6928199J4000000D01*
G74*G01*
X-000082372987Y-000069927978D02*
D01*
D01*
G75*
G03X-000081301183Y-000073927995I7999958J-5D01*
G74*G01*
Y-000065927986D02*
D01*
D01*
G75*
G03X-000082372987Y-000069927978I6928238J-4000015D01*
G74*G01*
X-000079481299Y-000063771297D02*
D01*
D01*
G75*
G03X-000081301183Y-000065927986I5108682J-6157085D01*
G74*G01*
X-000067444797D02*
D01*
D01*
G75*
G03X-000069264682Y-000063771297I-6927755J-3999687D01*
G74*G01*
X-000070372986Y-000060927996D02*
D01*
D01*
G75*
G03X-000069264682Y-000063771297I4201371J13D01*
G74*G01*
X-000066702381Y-000067655897D02*
D01*
D01*
G75*
G03X-000067444797Y-000065927986I-7668105J-2271198D01*
G74*G01*
X-000070372986Y-000076856183D02*
D01*
D01*
G75*
G03X-000067444797Y-000073927995I-4000000J6928200D01*
G74*G01*
X-000074372978Y-000077927987D02*
D01*
D01*
G75*
G03X-000070372986Y-000076856183I5J7999958D01*
G74*G01*
X-000078372995D02*
D01*
D01*
G75*
G03X-000074372978Y-000077927987I4000015J6928238D01*
G74*G01*
X-000066719297Y-000067629582D02*
X-000060270085Y-000067624985D01*
X-000066403397Y-000070625284D02*
X-000060591776D01*
X-000056622188Y-000060927996D02*
X-000048622178D01*
X-000078372995D02*
X-000070372986D01*
M02*